<svg width="123" height="49" viewBox="0 0 123 49" fill="none" xmlns="http://www.w3.org/2000/svg">
<mask id="mask0_49_487" style="mask-type:luminance" maskUnits="userSpaceOnUse" x="7" y="6" width="110" height="36">
<path d="M116.001 6.20728H7V41.8874H116.001V6.20728Z" fill="white"/>
</mask>
<g mask="url(#mask0_49_487)">
<path d="M110.237 6.48145H20.8404C17.8606 6.48145 15.3512 8.79477 15.1159 11.7354L8.37199 14.284C7.39177 14.6369 6.88205 15.774 7.23493 16.7542C7.43098 17.3031 7.86228 17.7344 8.41119 17.8913L15.0767 20.1262V35.8489C15.0767 39.0249 17.6645 41.6127 20.8404 41.6127H110.237C113.413 41.6127 116 39.0249 116 35.8489V12.2452C116 9.06923 113.413 6.48145 110.237 6.48145Z" fill="#002E47"/>
<path d="M29.1532 15.7738C29.5845 15.068 30.4079 14.6368 31.2313 14.6759C31.5057 14.6759 31.741 14.7152 32.0154 14.7544C32.2115 14.7936 32.4468 14.872 32.6428 14.9897C32.8389 15.068 32.9957 15.1857 33.1525 15.3033C33.2701 15.4209 33.427 15.5385 33.5446 15.6562C33.7406 15.4994 33.8975 15.3033 34.0151 15.1073C34.172 14.9504 34.2504 14.7152 34.2504 14.5191C34.2504 14.4015 34.2111 14.2839 34.172 14.1662C34.0935 14.0486 34.0151 13.9702 33.9367 13.8918C33.8191 13.8133 33.7015 13.6957 33.5838 13.6173C33.3878 13.4997 33.1918 13.3821 32.9957 13.3036C32.7212 13.186 32.4468 13.1076 32.1723 13.0684C31.8194 12.99 31.4666 12.9508 31.1137 12.9508C30.4079 12.9508 29.7022 13.0684 29.0748 13.3429C28.5259 13.5781 28.0162 13.9702 27.6241 14.4407C27.232 14.9112 26.9183 15.4994 26.7615 16.0875C26.5654 16.754 26.4478 17.4598 26.487 18.1656C26.487 18.8713 26.5654 19.5771 26.7615 20.2436C26.9183 20.8318 27.1927 21.3807 27.5849 21.8904C27.977 22.3609 28.4867 22.7138 29.0356 22.949C29.7022 23.2235 30.4079 23.3411 31.1137 23.3411C31.4666 23.3411 31.8586 23.3019 32.2115 23.2627C32.4859 23.1843 32.7604 23.1059 33.0349 22.9883C33.2309 22.9099 33.427 22.8314 33.5838 22.7138C33.7015 22.6354 33.7799 22.5569 33.8975 22.4785C33.9759 22.4002 34.0544 22.2825 34.1327 22.1649C34.172 22.0473 34.2111 21.9688 34.2111 21.8512C34.2111 21.7336 34.172 21.6552 34.1327 21.5376C34.0935 21.4199 34.0151 21.3415 33.9759 21.2238C33.8975 21.1062 33.8191 21.0278 33.7406 20.9102L33.5446 20.6357C33.4662 20.7141 33.3485 20.7926 33.1918 20.9102C33.0349 21.0278 32.878 21.1455 32.7212 21.2238C32.5252 21.3415 32.3292 21.4199 32.1331 21.4983C31.8978 21.5767 31.6233 21.6159 31.3489 21.6159C30.8784 21.6159 30.4471 21.5376 30.0158 21.3023C29.6629 21.1062 29.3885 20.8318 29.1532 20.5181C28.9179 20.1652 28.7611 19.7731 28.6827 19.381C28.6043 18.9498 28.5651 18.4792 28.5651 18.0479C28.5651 17.6166 28.6043 17.1853 28.6827 16.754C28.7611 16.4796 28.9179 16.1267 29.1532 15.7738Z" fill="#002E47"/>
<path d="M30.9564 24.0474C30.2114 24.0474 29.4664 23.8905 28.7607 23.6161C28.0941 23.3416 27.506 22.9103 27.0747 22.3613C26.6042 21.8125 26.2905 21.1851 26.0944 20.4793C25.8984 19.7344 25.7808 18.9894 25.82 18.2052C25.82 17.4603 25.8984 16.6761 26.1337 15.9311C26.3297 15.2253 26.6826 14.598 27.1139 14.0491C27.5844 13.5002 28.1725 13.0689 28.7998 12.7944C29.5448 12.4807 30.329 12.3239 31.1132 12.3631C31.5053 12.3631 31.8974 12.4023 32.2895 12.4807C32.6031 12.5591 32.9168 12.6376 33.2305 12.7552C33.4657 12.8336 33.701 12.9512 33.9363 13.1081C34.0931 13.1865 34.2107 13.3041 34.3675 13.4218C34.5244 13.5785 34.642 13.6962 34.7204 13.853C34.838 14.0491 34.9165 14.2844 34.9165 14.5196C34.9165 14.8725 34.7596 15.2253 34.5636 15.4998C34.4068 15.6958 34.2107 15.9311 34.0146 16.1272C33.7794 16.3624 33.3481 16.3624 33.1128 16.0879C32.9952 15.9703 32.8776 15.8527 32.7599 15.7743C32.6423 15.6567 32.5247 15.5782 32.3679 15.539C32.2111 15.4606 32.0542 15.3822 31.8582 15.343C31.6621 15.3037 31.4661 15.2646 31.2309 15.2646C30.5643 15.2253 30.0153 15.539 29.6624 16.0487C29.5056 16.3232 29.388 16.6369 29.3096 16.9505C29.2312 17.3426 29.1919 17.7347 29.1919 18.1268C29.1919 18.5189 29.2312 18.9502 29.3096 19.3423C29.388 19.6559 29.5056 19.9697 29.6624 20.2441C29.8193 20.4793 30.0545 20.6754 30.2898 20.8323C30.5643 20.989 30.9171 21.0675 31.27 21.0675C31.5053 21.0675 31.7014 21.0283 31.8582 20.989C32.015 20.9499 32.1718 20.8714 32.3287 20.793C32.4463 20.7146 32.6031 20.6362 32.6816 20.5578C32.7992 20.4402 32.9168 20.3617 32.9952 20.2833C33.1128 20.1657 33.3089 20.1264 33.4657 20.1264C33.6225 20.1264 33.7794 20.2441 33.897 20.3617L34.0931 20.597C34.1715 20.7146 34.2891 20.8323 34.3675 20.9499C34.446 21.1067 34.5244 21.2243 34.5636 21.3419C34.642 21.4988 34.6812 21.6949 34.7204 21.8909C34.7204 22.1261 34.6812 22.3222 34.5636 22.5182C34.5636 22.5182 34.5636 22.5575 34.5244 22.5575C34.446 22.7142 34.3283 22.8711 34.1715 22.9887C34.0539 23.1063 33.897 23.2239 33.7794 23.3024C33.5834 23.42 33.3481 23.5377 33.1128 23.6161C32.8384 23.7337 32.5247 23.8513 32.2111 23.8905C31.7797 23.9689 31.3876 24.0082 30.9564 24.0082C31.074 24.0474 30.9956 24.0474 30.9564 24.0474ZM30.9956 13.657C30.4074 13.657 29.8585 13.7746 29.3096 14.0099C28.8391 14.2059 28.4078 14.5196 28.0941 14.9117C27.7412 15.343 27.506 15.8135 27.3491 16.3232C27.1531 16.9505 27.0747 17.5779 27.0747 18.2445C27.0747 18.911 27.1531 19.5383 27.3099 20.1657C27.4668 20.6754 27.702 21.1459 28.0157 21.5772C28.3294 21.9693 28.7607 22.283 29.2312 22.479C29.8193 22.7142 30.4074 22.8319 31.0348 22.8319C31.3876 22.8319 31.7014 22.7927 32.0542 22.7535C32.2895 22.7142 32.5247 22.6358 32.7208 22.5182C32.9168 22.4398 33.0344 22.3613 33.1913 22.283C33.2697 22.2437 33.3089 22.2045 33.3873 22.1261C33.4265 22.0869 33.4657 22.0477 33.5049 22.0085V21.9693C33.4657 21.8909 33.4265 21.8125 33.3481 21.6949C33.2305 21.7732 33.0737 21.8516 32.956 21.9301C32.7208 22.0477 32.4855 22.1653 32.2502 22.2437C31.9366 22.3222 31.6229 22.4006 31.3092 22.3613C30.7603 22.3613 30.2114 22.2437 29.7017 22.0085C29.2704 21.7732 28.8783 21.4204 28.6038 21.0283C28.3294 20.597 28.1334 20.1657 28.0549 19.6559C27.9372 19.1855 27.8981 18.6757 27.8981 18.2052C27.8981 17.7348 27.9372 17.2642 28.0549 16.7937C28.1334 16.3232 28.3294 15.8919 28.5646 15.4606C29.1527 14.5588 30.1722 14.0099 31.2309 14.0491C31.5053 14.0491 31.8582 14.0883 32.1718 14.1667C32.4071 14.2451 32.6816 14.3235 32.9168 14.4411C33.1128 14.5588 33.3089 14.6764 33.4657 14.7941C33.4657 14.7941 33.4657 14.7941 33.4657 14.7549C33.5442 14.6764 33.5442 14.598 33.5834 14.5196C33.5442 14.4411 33.5049 14.402 33.4657 14.3628C33.3873 14.2844 33.3089 14.2451 33.1913 14.1667C33.0344 14.0491 32.8776 13.9706 32.7208 13.9315C32.4855 13.853 32.2502 13.7746 32.015 13.6962C31.7405 13.657 31.4269 13.657 31.1132 13.657C31.074 13.657 31.0348 13.657 30.9956 13.657Z" fill="#002E47"/>
<path d="M41.5426 18.6365C41.5426 18.2444 41.5034 17.8131 41.3858 17.421C41.3074 17.1073 41.1113 16.7937 40.8761 16.5584C40.6016 16.3232 40.2879 16.1271 39.9743 16.0487C39.543 15.9311 39.0725 15.8918 38.602 15.8918C38.2491 15.8918 37.857 15.9311 37.5041 15.9703C37.1904 16.0095 36.8768 16.1271 36.5631 16.2056C36.3278 16.2839 36.1318 16.4016 35.9357 16.5584C35.8181 16.6368 35.7397 16.7937 35.7005 16.9505C35.7005 17.1073 35.7789 17.2641 35.8181 17.421C35.8966 17.617 36.0142 17.8131 36.1318 17.9699C36.4455 17.7739 36.7592 17.617 37.112 17.4994C37.4649 17.3426 37.857 17.3034 38.2491 17.3034C38.602 17.2641 38.9549 17.3426 39.2293 17.5386C39.4646 17.7347 39.5822 18.0484 39.543 18.362V18.6365H39.2293C39.1117 18.6365 38.9941 18.6365 38.8764 18.6365C38.4844 18.6757 38.0923 18.7149 37.7002 18.7541C37.3081 18.8325 36.8768 18.9502 36.5239 19.1462C36.171 19.3031 35.8181 19.5775 35.5829 19.8912C35.3084 20.244 35.1908 20.6754 35.23 21.1459C35.23 21.4987 35.3084 21.8516 35.426 22.1653C35.5437 22.4397 35.7397 22.675 35.975 22.8711C36.2102 23.0279 36.4455 23.1455 36.7199 23.2239C36.9944 23.3023 37.2689 23.3416 37.5433 23.3416C37.9746 23.3416 38.4451 23.2632 38.8764 23.1063C39.1901 22.9494 39.5038 22.7534 39.739 22.5182C39.7782 22.7534 39.8958 22.9494 40.0919 23.1063C40.3272 23.2632 40.6016 23.3415 40.9153 23.3023C41.0722 23.3023 41.229 23.3023 41.3858 23.2632C41.5426 23.2239 41.7386 23.1847 41.8955 23.1063C41.621 22.5574 41.5034 21.9692 41.5426 21.3811V18.6365ZM39.6214 21.2243C39.6214 21.3027 39.5822 21.4203 39.5038 21.4987C39.4253 21.6164 39.3077 21.6948 39.1901 21.7732C39.0332 21.8516 38.9156 21.93 38.7588 21.9692C38.602 22.0085 38.4059 22.0477 38.2099 22.0477C37.8962 22.0868 37.6218 21.9692 37.3865 21.734C37.2297 21.538 37.1512 21.2635 37.1512 21.0283C37.1512 20.793 37.1904 20.5969 37.3473 20.4009C37.4649 20.244 37.6218 20.0872 37.8178 20.0088C38.0138 19.8912 38.2491 19.8128 38.4844 19.8128C38.7196 19.7736 38.9549 19.7343 39.2293 19.7343H39.4253H39.6214V21.2243Z" fill="#002E47"/>
<path d="M37.6219 24.0077C37.5827 24.0077 37.5434 24.0077 37.5043 24.0077C37.1906 24.0077 36.8769 23.9685 36.524 23.89C36.1711 23.8116 35.8575 23.6547 35.583 23.4195C35.2694 23.1842 34.9949 22.8314 34.838 22.4785C34.642 22.0864 34.5636 21.6159 34.5636 21.1846C34.5244 20.5965 34.7204 20.0476 35.0341 19.577C35.3477 19.185 35.7006 18.8713 36.132 18.6753C35.9359 18.6753 35.7399 18.5968 35.6222 18.44C35.4654 18.2439 35.3085 18.0087 35.1909 17.7342C35.1125 17.5382 35.0341 17.3029 34.9949 17.0677C34.9949 17.0285 34.9949 16.9892 34.9949 16.9501C35.0341 16.5972 35.2301 16.2835 35.5046 16.0875C35.7398 15.9306 35.9751 15.7738 36.2888 15.6561C36.6417 15.5385 36.9946 15.4209 37.3474 15.3817C37.7395 15.3033 38.1708 15.264 38.5629 15.264C39.0726 15.264 39.5823 15.3033 40.0921 15.4601C40.5233 15.5778 40.9547 15.813 41.2683 16.1266C41.582 16.4404 41.8173 16.8324 41.9349 17.2637C42.0525 17.7342 42.1309 18.1655 42.0917 18.636V21.4591V21.4983C42.0525 21.9688 42.1701 22.4393 42.3661 22.8706C42.4446 23.0274 42.4446 23.2235 42.4054 23.3803C42.327 23.5371 42.2093 23.694 42.0525 23.7332C41.8564 23.8116 41.6604 23.89 41.4251 23.9292C41.2291 23.9685 41.033 23.9685 40.837 23.9685C40.4057 24.0076 40.0136 23.89 39.6607 23.6547C39.6607 23.6547 39.6215 23.6547 39.6215 23.6156C39.5823 23.5764 39.5039 23.5371 39.4647 23.4587C39.3471 23.5371 39.1902 23.6156 39.0334 23.6547C38.6413 23.9292 38.1316 24.0077 37.6219 24.0077ZM37.3866 19.5379C37.1906 19.577 37.0337 19.6555 36.8769 19.7731C36.6024 19.9299 36.328 20.126 36.1711 20.3612C36.0143 20.5965 35.9359 20.8709 35.9359 21.1846V21.2238C35.9359 21.4983 35.9751 21.7335 36.0927 21.9688C36.1711 22.1256 36.2888 22.2825 36.4456 22.4393C36.6024 22.5569 36.7593 22.6354 36.9553 22.6745C37.1514 22.753 37.3866 22.753 37.5827 22.753C37.8179 22.753 38.0531 22.753 38.2492 22.6745C37.7787 22.7138 37.3082 22.5177 36.9553 22.1648L36.9161 22.1256C36.6808 21.8119 36.524 21.4199 36.524 21.0278C36.524 20.6749 36.6024 20.322 36.8377 20.0476C36.9553 19.8515 37.1514 19.6555 37.3866 19.5379ZM40.4449 22.6354C40.5626 22.7138 40.7194 22.753 40.837 22.7138H40.8762H40.9938C40.8762 22.2825 40.837 21.8512 40.8762 21.4199V18.636C40.8762 18.2832 40.837 17.9303 40.7586 17.6166C40.6802 17.4206 40.6018 17.2245 40.4057 17.0285C40.2489 16.8716 40.0136 16.754 39.7783 16.6756C39.3863 16.558 38.9942 16.5187 38.6021 16.5187C38.2492 16.5187 37.9355 16.558 37.5827 16.5972C37.3082 16.6364 37.0337 16.7148 36.7593 16.8324C36.6024 16.8716 36.4848 16.9501 36.328 17.0677C36.328 17.1069 36.3672 17.1461 36.3672 17.1461C36.524 17.0677 36.6808 16.9892 36.8769 16.9108C37.3082 16.7148 37.7787 16.6364 38.2492 16.6364C38.7197 16.5972 39.1902 16.7148 39.5823 16.9892C39.6215 17.0285 39.6607 17.0285 39.7 17.0677C40.0528 17.4206 40.2489 17.8911 40.2097 18.4008V18.636C40.2097 18.8713 40.0921 19.0281 39.9352 19.1458C40.1312 19.2634 40.2489 19.4594 40.2489 19.6947V21.2238V21.2631C40.2097 21.4983 40.1312 21.7335 39.9744 21.8904V21.9295C40.2097 22.008 40.3665 22.204 40.4057 22.4393C40.3665 22.5177 40.4057 22.5961 40.4449 22.6354ZM37.8963 21.3022C37.9748 21.3807 38.0531 21.3807 38.1708 21.3807H38.2492C38.3669 21.3807 38.4845 21.3807 38.6021 21.3414C38.7197 21.3022 38.7981 21.2631 38.9157 21.2238C38.955 21.1846 38.9942 21.1846 39.0334 21.1454V20.4005C38.8766 20.4005 38.7589 20.4396 38.6021 20.4396C38.4453 20.4788 38.2884 20.5181 38.1316 20.5965C38.014 20.6357 37.9355 20.7141 37.8963 20.7925C37.8571 20.8317 37.8179 20.9102 37.8571 20.9886V21.0278C37.8179 21.1454 37.8179 21.2238 37.8963 21.3022ZM38.2492 17.9695C37.9355 17.9695 37.6611 18.0087 37.3866 18.1263C37.2298 18.2047 37.0729 18.2439 36.9161 18.3224C37.1514 18.2439 37.3866 18.1655 37.6219 18.1263C38.014 18.0479 38.3669 18.0087 38.7589 18.0087C38.6413 17.9695 38.4845 17.9303 38.3276 17.9303C38.2884 17.9303 38.2884 17.9303 38.2492 17.9303V17.9695Z" fill="#002E47"/>
<path d="M49.2273 16.676C48.9921 16.4016 48.6785 16.2056 48.3256 16.0879C47.9727 15.9703 47.6198 15.8918 47.2669 15.8918C46.8356 15.8918 46.3651 15.9703 45.9731 16.1663C45.6986 16.3232 45.4241 16.5192 45.2281 16.7544C45.1888 16.5192 45.032 16.3232 44.7967 16.2056C44.5223 16.0879 44.2479 16.0487 43.9341 16.0487H43.6597C43.5813 16.0487 43.5029 16.0487 43.4637 16.0879L43.2676 16.1271V26.3998H45.3065V22.675C45.3457 22.7534 45.3849 22.7926 45.4633 22.8318C45.5809 22.9103 45.6593 23.0279 45.8162 23.0671C45.9731 23.1455 46.1691 23.2239 46.3651 23.2632C46.6004 23.3416 46.8748 23.3808 47.1101 23.3416C47.463 23.3416 47.8159 23.2632 48.1687 23.1455C48.5216 23.0279 48.8353 22.7926 49.1097 22.5182C49.4234 22.1653 49.6587 21.7732 49.8155 21.3419C50.0115 20.7145 50.0899 20.0872 50.0899 19.4207C50.0899 18.8325 50.0115 18.2836 49.8547 17.7347C49.6979 17.3818 49.5018 17.0289 49.2273 16.676ZM47.5806 21.1851C47.3454 21.5771 46.914 21.8124 46.4828 21.7732C46.2475 21.7732 46.0122 21.734 45.777 21.6164C45.6202 21.538 45.4633 21.4595 45.3457 21.3419V18.166C45.3457 17.9699 45.4241 17.7739 45.5809 17.6563C45.8162 17.4603 46.1298 17.3818 46.4435 17.421C46.6788 17.421 46.914 17.4603 47.1493 17.5779C47.3454 17.6955 47.5021 17.8131 47.6198 18.0091C47.7374 18.2052 47.8159 18.4405 47.855 18.6757C47.8942 18.9502 47.9335 19.2246 47.9335 19.4991C47.9727 20.1264 47.8551 20.6754 47.5806 21.1851Z" fill="#002E47"/>
<path d="M45.3069 26.9877H43.268C42.9151 26.9877 42.6406 26.7132 42.6406 26.3603V16.0876C42.6406 15.7739 42.8759 15.4995 43.1896 15.4602L43.3856 15.421C43.464 15.421 43.5425 15.3818 43.6601 15.3818H43.9737C44.3266 15.3818 44.7187 15.4602 45.0716 15.6171C45.1892 15.6563 45.2677 15.7347 45.3853 15.8131C45.5029 15.7347 45.5813 15.6955 45.6989 15.6171C46.2086 15.3426 46.7576 15.225 47.3065 15.2642C47.6986 15.2642 48.1299 15.3426 48.522 15.4995C48.9533 15.6563 49.3454 15.9307 49.659 16.2836C50.0119 16.6757 50.2472 17.107 50.404 17.6168C50.6001 18.2441 50.6785 18.8714 50.6785 19.4987C50.6785 20.2045 50.6001 20.9103 50.3648 21.5769C50.208 22.1257 49.8943 22.5962 49.5414 23.0276C49.1885 23.3804 48.7964 23.6549 48.3259 23.8117C47.9338 23.9685 47.5026 24.0078 47.0712 24.047C46.7576 24.047 46.4439 24.0078 46.1303 23.9294C46.0518 23.8902 45.9734 23.8902 45.895 23.8509V26.3603C45.9734 26.7132 45.6598 26.9877 45.3069 26.9877ZM43.9346 25.733H44.6795V22.6747C44.6795 22.4002 44.8363 22.165 45.1108 22.0865C45.15 22.0865 45.15 22.0865 45.1892 22.0473C45.1108 21.9689 44.9932 21.9297 44.9148 21.8513C44.7579 21.7336 44.6795 21.5376 44.6795 21.3808V18.2049C44.6795 17.8912 44.7972 17.6168 44.9932 17.3815C44.7972 17.303 44.6795 17.1462 44.6011 16.9109C44.6011 16.8718 44.5619 16.8325 44.5227 16.7933C44.3658 16.7149 44.1698 16.6757 43.9737 16.6757H43.9346V25.733ZM45.895 22.361C45.9734 22.4002 46.0126 22.4786 46.091 22.4786C46.2479 22.5571 46.3655 22.5962 46.5224 22.6355C46.7184 22.6747 46.9144 22.7139 47.0712 22.7139C47.3849 22.7139 47.6594 22.6747 47.9338 22.5571C48.2083 22.4786 48.4435 22.3218 48.6396 22.0865C48.8749 21.8121 49.0709 21.4984 49.1885 21.1455C49.3454 20.5966 49.4238 20.0084 49.4238 19.4596C49.4238 18.9106 49.3846 18.4401 49.2278 17.9304C49.1101 17.6168 48.9533 17.3423 48.7573 17.0678C48.6004 16.8718 48.3652 16.7149 48.1299 16.6365C47.8554 16.5581 47.581 16.4797 47.3065 16.4797C46.9536 16.4797 46.6007 16.5581 46.3263 16.7149C46.3263 16.7149 46.2871 16.7149 46.2871 16.7542H46.5224C46.8752 16.7542 47.1888 16.8325 47.5026 16.9894C47.8162 17.1462 48.0514 17.3815 48.2083 17.6559C48.3652 17.9304 48.4828 18.2441 48.522 18.5577C48.5612 18.8714 48.6004 19.1851 48.6004 19.4987C48.6396 20.1653 48.4828 20.871 48.1691 21.4984V21.5376C47.8162 22.1257 47.1888 22.4786 46.4831 22.4395C46.2871 22.4395 46.091 22.4002 45.895 22.361ZM46.4831 21.1455C46.7184 21.1455 46.9144 21.0671 47.0321 20.871C47.2281 20.479 47.3457 20.0084 47.3065 19.5379V19.4987C47.3065 19.2635 47.3065 19.0282 47.2281 18.793C47.1888 18.6361 47.1497 18.4793 47.0712 18.3225C47.0321 18.2441 46.9536 18.1656 46.8752 18.1265C46.7576 18.0872 46.64 18.048 46.4831 18.048C46.4439 18.048 46.4047 18.048 46.4047 18.048C46.2871 18.048 46.1302 18.048 46.0126 18.1265V18.1656V20.9887C46.0518 20.9887 46.0518 21.0279 46.091 21.0279C46.1695 21.1455 46.3263 21.1455 46.4831 21.1455C46.4439 21.1455 46.4439 21.1455 46.4831 21.1455Z" fill="#002E47"/>
<path d="M55.5015 21.3026C55.4624 21.3418 55.4231 21.381 55.3447 21.4202C55.2663 21.4986 55.1879 21.5379 55.0703 21.5771C54.9527 21.6555 54.835 21.6947 54.7174 21.7339C54.5998 21.7731 54.4429 21.8123 54.3253 21.8123C53.7763 21.8123 53.4627 21.4594 53.4627 20.7536V17.5778H55.5408V16.0878H53.4627V15.0292C53.4627 14.8331 53.4235 14.5979 53.3451 14.441C53.2666 14.2842 53.149 14.1666 53.0314 14.0881C52.9137 14.0098 52.7569 13.9313 52.6001 13.8921C52.4433 13.8529 52.2864 13.8529 52.1296 13.8529H51.8943C51.8159 13.8529 51.7375 13.8529 51.6591 13.8921L51.4238 13.9313V20.8713C51.4238 21.1065 51.4238 21.3026 51.463 21.5379C51.463 21.7339 51.5414 21.9691 51.5807 22.1652C51.6983 22.5573 51.9728 22.8709 52.2864 23.1062C52.7177 23.3807 53.2275 23.4983 53.7372 23.4591C54.0508 23.4591 54.3253 23.4199 54.5998 23.3807C54.835 23.3414 55.0703 23.2238 55.3055 23.1062C55.4624 23.0278 55.6192 22.9102 55.7368 22.7533C55.8544 22.6357 55.8936 22.5181 55.8936 22.3612C55.8936 22.2044 55.8544 22.0476 55.776 21.8907C55.7368 21.6555 55.6192 21.4594 55.5015 21.3026Z" fill="#002E47"/>
<path d="M53.6579 24.0471C53.0697 24.0471 52.5208 23.8903 52.0503 23.5765C51.5798 23.2629 51.2269 22.8316 51.0701 22.2827C50.9916 22.0474 50.9132 21.773 50.9132 21.4985C50.874 21.2632 50.874 20.9888 50.874 20.7535V13.8528C50.874 13.5391 51.1093 13.2647 51.4229 13.2254L51.6582 13.1862C51.7366 13.1862 51.815 13.147 51.9327 13.147H52.2071C52.4032 13.147 52.5992 13.147 52.7953 13.1862C53.0305 13.2254 53.2657 13.343 53.4618 13.4607C53.6971 13.6175 53.8539 13.8135 53.9715 14.088C54.0891 14.3625 54.1676 14.6761 54.1676 14.9898V15.3819H55.6183C55.9712 15.3819 56.2456 15.6563 56.2456 16.0092V17.5776C56.2456 17.9305 55.9712 18.205 55.6183 18.205H54.1676V20.7535C54.1676 21.1456 54.246 21.1456 54.3636 21.1456C54.442 21.1456 54.4812 21.1456 54.5596 21.1064C54.6381 21.0672 54.7165 21.028 54.7949 20.9888C54.8341 20.9496 54.9126 20.9104 54.9517 20.8711C54.9909 20.8319 55.0302 20.7928 55.0693 20.7928C55.187 20.6751 55.383 20.5967 55.579 20.5967C55.7751 20.5967 55.9319 20.7143 56.0496 20.8711C56.2064 21.0672 56.324 21.3025 56.4416 21.4985C56.5593 21.7337 56.6377 21.969 56.6377 22.2435C56.6377 22.5571 56.5201 22.8708 56.324 23.0668C56.1672 23.2629 55.9712 23.4197 55.6967 23.5374C55.4223 23.6942 55.1478 23.7726 54.8341 23.851C54.5204 23.9294 54.1676 23.9686 53.8147 23.9686C53.7755 24.047 53.697 24.0471 53.6579 24.0471ZM52.0895 14.4409V20.7928C52.0895 20.9888 52.0895 21.1848 52.1287 21.3416V21.3809C52.1287 21.5377 52.1679 21.6945 52.2463 21.8514C52.3248 22.0866 52.5208 22.3219 52.7168 22.4787C53.0305 22.6748 53.3834 22.7532 53.7755 22.7139H53.8147C54.05 22.7139 54.3244 22.6748 54.5596 22.6356C54.7557 22.5963 54.9125 22.5179 55.1086 22.4395C55.187 22.4003 55.3046 22.3219 55.3438 22.2435C55.3438 22.2042 55.3438 22.2042 55.3438 22.1651C55.2262 22.2042 55.1086 22.2827 54.9909 22.3219C54.7949 22.4003 54.5988 22.4395 54.4028 22.4395C53.4618 22.4395 52.9129 21.8122 52.9129 20.7535V17.5776C52.9129 17.2247 53.1874 16.9503 53.5402 16.9503H54.9909V16.715H53.5402C53.1874 16.715 52.9129 16.4405 52.9129 16.0877V15.029C52.9129 14.9114 52.9129 14.7937 52.8344 14.6761C52.8344 14.6369 52.7953 14.5977 52.7168 14.5585C52.6776 14.5193 52.5992 14.4801 52.5208 14.4801C52.4032 14.4801 52.2855 14.4409 52.1679 14.4409H52.0895Z" fill="#002E47"/>
<path d="M62.5594 16.8721C62.2849 16.5584 61.9712 16.3232 61.6184 16.1663C61.1871 15.9703 60.6774 15.8918 60.2068 15.8918C59.7756 15.8918 59.3442 15.9703 58.9522 16.0879C58.5601 16.2447 58.168 16.4408 57.8543 16.7544C57.5014 17.0681 57.227 17.4603 57.0702 17.8915C56.8741 18.4012 56.7564 18.9502 56.7564 19.4991C56.7173 20.1657 56.8349 20.793 57.0702 21.4203C57.2662 21.8908 57.5799 22.2829 57.9328 22.6358C58.2856 22.9494 58.7169 23.1455 59.1482 23.2632C59.6187 23.3808 60.0501 23.4592 60.5205 23.4592C60.991 23.4592 61.4223 23.42 61.8536 23.3023C62.1673 23.2239 62.481 23.0671 62.7555 22.9103C62.9907 22.7926 63.1083 22.5574 63.1475 22.3221C63.1475 22.1261 63.0691 21.93 62.9515 21.734C62.8338 21.538 62.7162 21.3419 62.5594 21.1459L62.2457 21.4203C62.1281 21.538 62.0105 21.6164 61.8536 21.6948C61.6968 21.7732 61.5008 21.8516 61.3439 21.8908C61.1479 21.93 60.9126 21.9692 60.6774 21.9692C60.1284 22.0085 59.6187 21.8124 59.2658 21.4203C58.9522 21.0283 58.7954 20.5577 58.7561 20.048H63.1475C63.1475 19.9696 63.1475 19.9304 63.1867 19.8519C63.1867 19.7736 63.1867 19.6951 63.1867 19.5775C63.1867 19.4599 63.1867 19.4207 63.1867 19.3031V19.107C63.1867 18.7149 63.1475 18.3228 63.0299 17.9307C62.9907 17.4994 62.7946 17.1465 62.5594 16.8721ZM58.7954 18.8717C58.7561 18.4405 58.913 18.0484 59.1482 17.6955C59.3835 17.421 59.7756 17.2641 60.1284 17.2641C60.5205 17.225 60.9127 17.3818 61.1479 17.6955C61.3439 18.0484 61.4615 18.4796 61.4223 18.8717H58.7954Z" fill="#002E47"/>
<path d="M60.6379 24.0861C60.5987 24.0861 60.5595 24.0861 60.5595 24.0861C60.0498 24.0861 59.5401 24.0077 59.0304 23.8901C58.4814 23.7332 58.0109 23.498 57.5796 23.1451C57.1091 22.753 56.7562 22.2433 56.521 21.6944C56.2465 20.9886 56.1289 20.2437 56.1289 19.5379C56.1289 18.9105 56.2073 18.2832 56.4818 17.6951C56.6778 17.1854 57.0307 16.7149 57.4228 16.3228C57.8149 15.9699 58.2462 15.6954 58.7559 15.5386C59.2264 15.3818 59.7361 15.3033 60.2066 15.3033C60.7556 15.3033 61.3437 15.3818 61.8534 15.617C62.3239 15.813 62.716 16.1268 63.0296 16.4796C63.3434 16.8325 63.5394 17.303 63.6962 17.7343C63.8139 18.1656 63.8922 18.6361 63.8922 19.0674V19.8124C63.8922 19.93 63.8922 20.0476 63.8531 20.126C63.8139 20.4397 63.5394 20.675 63.2257 20.675H63.0296C63.0689 20.675 63.0689 20.7142 63.0689 20.7534C63.2257 20.9495 63.3825 21.1847 63.5394 21.4199C63.6962 21.6552 63.7746 21.9297 63.8139 22.2433V22.3609C63.7746 22.8315 63.5002 23.2235 63.1081 23.4588C62.7944 23.6941 62.4415 23.8509 62.0494 23.9293C61.6182 24.0077 61.1476 24.0861 60.6379 24.0861ZM60.5595 22.7923C60.9516 22.7923 61.3437 22.753 61.7358 22.6354C61.9711 22.557 62.2063 22.4786 62.4415 22.3218C62.4808 22.3218 62.4808 22.2825 62.5199 22.2825C62.5592 22.2825 62.5592 22.2433 62.5592 22.2433C62.5592 22.1649 62.5199 22.0865 62.4808 22.0473C62.4023 22.0865 62.3239 22.1649 62.2063 22.2041C62.0102 22.3218 61.775 22.4002 61.5789 22.4394C61.3045 22.5178 61.03 22.557 60.7556 22.557C60.0498 22.5962 59.344 22.3218 58.8343 21.812L58.7951 21.7728C58.4031 21.2631 58.1678 20.675 58.1286 20.0476C58.1286 19.8908 58.1678 19.6948 58.3246 19.5771C58.3638 19.5379 58.4031 19.4987 58.4814 19.4595C58.2854 19.3419 58.1286 19.1458 58.1286 18.9105C58.0893 18.3224 58.2854 17.7735 58.6383 17.303C59.0304 16.8717 59.5401 16.6365 60.089 16.6365C60.6771 16.5972 61.2653 16.8717 61.6182 17.3422L61.6573 17.3814C61.9318 17.8519 62.0494 18.3617 62.0102 18.9105C62.0102 19.0674 61.9318 19.2243 61.8142 19.3419H62.5592V19.0674C62.5592 18.7145 62.5199 18.4008 62.4023 18.0479C62.3239 17.7343 62.1671 17.4991 62.0102 17.2638C61.8142 17.0285 61.5789 16.8717 61.3045 16.7541C60.9516 16.5972 60.5595 16.5188 60.1674 16.558C59.7753 16.558 59.4224 16.6365 59.1088 16.7149C58.7951 16.8325 58.4814 16.9893 58.2462 17.2246C57.9717 17.4598 57.7757 17.7735 57.6188 18.1264C57.462 18.5577 57.3444 19.0282 57.3836 19.4987C57.3836 20.0869 57.462 20.675 57.6581 21.1847C57.8149 21.5376 58.0501 21.8904 58.3638 22.1257C58.6383 22.3609 58.9519 22.5178 59.3048 22.6354C59.7361 22.753 60.1282 22.7923 60.5595 22.7923ZM59.8145 20.9495C60.0498 21.1847 60.3635 21.3023 60.6771 21.2631H60.7556C60.9124 21.2631 61.0692 21.2631 61.2261 21.1847C61.3437 21.1455 61.5005 21.1063 61.6182 21.0278C61.6966 20.9886 61.8142 20.9102 61.8926 20.8318L62.1671 20.5966H59.6185C59.6577 20.7534 59.7361 20.8318 59.8145 20.9495ZM59.5401 18.244H60.6771C60.6379 18.1656 60.6379 18.1264 60.5987 18.0479C60.5203 17.9303 60.3635 17.8911 60.2066 17.8911C60.1674 17.8911 60.1282 17.8911 60.089 17.8911C59.893 17.8911 59.7361 17.9696 59.6185 18.0872C59.6185 18.1656 59.5793 18.2048 59.5401 18.244Z" fill="#002E47"/>
<path d="M69.1851 16.0487C69.0675 16.0095 68.9106 15.9703 68.793 15.9311C68.6754 15.9311 68.5185 15.8918 68.4009 15.8918C68.2049 15.8918 68.0088 15.9311 67.852 15.9703C67.6951 16.0095 67.5383 16.0879 67.3814 16.2056C67.2638 16.2839 67.107 16.4016 67.0286 16.5192C66.9502 16.5977 66.8717 16.7153 66.7933 16.8329C66.7541 16.5977 66.5581 16.3624 66.362 16.2447C66.0876 16.1271 65.8131 16.0487 65.5386 16.0487H65.2642C65.1857 16.0487 65.1074 16.0487 65.0681 16.0879L64.8721 16.1271V23.42H66.9109V18.5581C66.9109 18.3228 67.0286 18.0876 67.2246 17.9307C67.4599 17.7347 67.7343 17.6563 68.0088 17.6563C68.2049 17.6563 68.4009 17.6955 68.5969 17.7739C68.793 17.8523 68.9498 17.9699 69.1066 18.0876C69.2243 17.8523 69.3419 17.617 69.4203 17.3818C69.5379 17.1465 69.5772 16.8721 69.5772 16.6368C69.5772 16.5192 69.538 16.4016 69.4595 16.2839C69.3811 16.1663 69.3027 16.0879 69.1851 16.0487Z" fill="#002E47"/>
<path d="M66.8322 24.0474H64.7933C64.4404 24.0474 64.166 23.7729 64.166 23.42V16.0879C64.166 15.7743 64.4012 15.4998 64.7149 15.4606L64.9109 15.4214C64.9894 15.4214 65.107 15.3822 65.1854 15.3822H65.4991C65.8911 15.3822 66.2441 15.4606 66.597 15.6174C66.6754 15.6567 66.7537 15.6959 66.8322 15.7743C66.9106 15.7351 66.9498 15.6959 67.0282 15.6174C67.2243 15.4998 67.4203 15.4214 67.6163 15.343C67.8908 15.2646 68.1261 15.2253 68.4005 15.2253C68.5574 15.2253 68.7142 15.2253 68.871 15.2646C69.0671 15.3038 69.2631 15.343 69.4592 15.4214C69.6552 15.5391 69.8121 15.6567 69.9297 15.8527C70.0865 16.0488 70.165 16.3232 70.165 16.5977C70.165 16.9505 70.0865 17.2643 69.9689 17.5779C69.8905 17.8131 69.7336 18.0876 69.616 18.3621C69.5376 18.5189 69.3808 18.6366 69.1848 18.6757C68.9887 18.715 68.7926 18.6757 68.6358 18.5581C68.5182 18.4797 68.4005 18.4013 68.2829 18.3228C68.2045 18.2837 68.0869 18.2837 67.9692 18.2837H67.9301C67.8124 18.2837 67.6948 18.3228 67.5772 18.4013C67.4987 18.4405 67.4987 18.5189 67.4987 18.5581V23.3808C67.4987 23.7337 67.1851 24.0474 66.8322 24.0474ZM65.4599 22.7534H66.2049V18.5581C66.2049 18.1268 66.4009 17.6955 66.7146 17.4211C66.6754 17.4211 66.6361 17.4211 66.6361 17.4211C66.4009 17.3819 66.2049 17.1858 66.1264 16.9114C66.1264 16.8329 66.0872 16.7937 66.0088 16.7545C65.852 16.6761 65.6559 16.6369 65.4991 16.6369H65.4599V22.7534ZM67.9692 16.9898C68.2437 16.9898 68.5182 17.029 68.7534 17.1466V17.1074C68.8318 16.9114 68.871 16.7545 68.871 16.5977C68.7927 16.5585 68.7534 16.5585 68.675 16.5585C68.5574 16.5585 68.4789 16.5193 68.3613 16.5193C68.2437 16.5193 68.1261 16.5193 68.0084 16.5585C67.8908 16.5977 67.7732 16.6369 67.6556 16.7153C67.5772 16.7545 67.4987 16.8329 67.4203 16.9114C67.3811 16.9505 67.3419 17.029 67.3027 17.0682C67.538 17.029 67.734 16.9898 67.9692 16.9898Z" fill="#002E47"/>
<path d="M74.9874 16.0487C74.8697 16.0095 74.7521 15.9703 74.6345 15.9311C74.5169 15.9311 74.3603 15.8918 74.2427 15.8918C74.0465 15.8918 73.8509 15.9311 73.6936 15.9703C73.537 16.0095 73.3798 16.0879 73.2232 16.2056C73.1056 16.2839 72.949 16.4016 72.8703 16.5192C72.7917 16.5977 72.7135 16.7153 72.6351 16.8329C72.5959 16.5977 72.4391 16.3624 72.2038 16.2447C71.9686 16.1271 71.6549 16.0487 71.3804 16.0487H71.106C71.0275 16.0487 70.9492 16.0487 70.9099 16.0879L70.7139 16.1271V23.42H72.7527V18.5581C72.7527 18.3228 72.8703 18.0876 73.0666 17.9307C73.3018 17.7347 73.576 17.6563 73.8509 17.6563C74.0465 17.6563 74.2427 17.6955 74.4389 17.7739C74.6345 17.8523 74.7918 17.9699 74.9484 18.0876C75.066 17.8523 75.1836 17.617 75.2622 17.3818C75.3798 17.1465 75.4188 16.8721 75.4188 16.6368C75.4188 16.5192 75.3798 16.4016 75.3012 16.2839C75.1836 16.1663 75.066 16.0879 74.9874 16.0487Z" fill="#002E47"/>
<path d="M72.675 24.0474H70.6361C70.2832 24.0474 70.0088 23.7729 70.0088 23.42V16.0879C70.0088 15.7743 70.244 15.4998 70.5577 15.4606L70.7537 15.4214C70.8321 15.4214 70.9498 15.3822 71.0282 15.3822H71.3418C71.7339 15.3822 72.0868 15.4606 72.4397 15.6174C72.5182 15.6567 72.5965 15.6959 72.675 15.7743C72.7535 15.7351 72.7925 15.6959 72.8711 15.6174C73.0674 15.4998 73.2629 15.4214 73.4592 15.343C73.7334 15.2646 73.9686 15.2253 74.2435 15.2253C74.4001 15.2253 74.5567 15.2253 74.7139 15.2646C74.9102 15.3038 75.1058 15.343 75.263 15.4214C75.4586 15.4998 75.6548 15.6567 75.7724 15.8135L75.8114 15.8527C75.9687 16.0488 76.0467 16.3232 76.0077 16.5977C76.0077 16.9505 75.929 17.2643 75.8114 17.5779C75.7335 17.8131 75.5762 18.0876 75.4586 18.3621C75.3806 18.5189 75.2234 18.6366 75.0278 18.6757C74.8316 18.715 74.6353 18.6757 74.4787 18.5189C74.3611 18.4405 74.2435 18.3621 74.1259 18.2837C74.0473 18.2445 73.9296 18.2445 73.812 18.2445C73.6554 18.2445 73.5378 18.2837 73.4202 18.3621C73.3806 18.4013 73.3416 18.4405 73.3416 18.5189V23.3416C73.3026 23.7337 73.0277 24.0474 72.675 24.0474ZM71.2635 22.7534H72.0084V18.5581C72.0084 18.1268 72.2044 17.7347 72.5182 17.4211C72.4789 17.4211 72.4397 17.4211 72.4005 17.4211C72.1653 17.3819 71.9692 17.1858 71.8908 16.9114C71.8908 16.8721 71.8516 16.7937 71.7732 16.7937C71.6163 16.7153 71.4203 16.6761 71.2635 16.6761H71.2242V22.7534H71.2635ZM73.812 16.9898C74.0473 16.9898 74.3215 17.029 74.5567 17.1466C74.5567 17.1466 74.5567 17.1466 74.5567 17.1074C74.6353 16.9505 74.6743 16.7545 74.6743 16.5977C74.6743 16.5977 74.6743 16.5977 74.6353 16.5977C74.5963 16.5585 74.5177 16.5585 74.4391 16.5585C74.3215 16.5585 74.2435 16.5193 74.1259 16.5193C74.0083 16.5193 73.8907 16.5193 73.773 16.5585C73.6554 16.5977 73.5378 16.6369 73.4202 16.7153C73.3416 16.7545 73.2629 16.8329 73.185 16.9114C73.1453 16.9505 73.1064 17.029 73.0674 17.0682C73.2629 16.9898 73.4982 16.9505 73.7334 16.9505C73.812 16.9898 73.812 16.9898 73.812 16.9898Z" fill="#002E47"/>
<path d="M82.281 21.4595V18.6365C82.281 18.2444 82.242 17.8131 82.1244 17.421C82.0458 17.1073 81.8496 16.7937 81.6143 16.5584C81.3401 16.3232 81.0263 16.1271 80.7124 16.0487C80.2816 15.9311 79.8105 15.8918 79.3401 15.8918C78.9872 15.8918 78.5954 15.9311 78.2426 15.9703C77.9287 16.0095 77.6149 16.1271 77.3017 16.2056C77.0664 16.2839 76.8702 16.4016 76.674 16.5584C76.5564 16.6368 76.4387 16.7937 76.4387 16.9505C76.4387 17.1073 76.4784 17.2641 76.5564 17.421C76.635 17.617 76.7526 17.8131 76.9092 17.9699C77.223 17.7739 77.5369 17.617 77.8897 17.4994C78.2426 17.3426 78.6344 17.3034 79.0269 17.3034C79.3797 17.2641 79.7325 17.3426 80.0068 17.5386C80.242 17.7347 80.3596 18.0484 80.3206 18.362V18.6365H80.0068C79.8891 18.6365 79.7715 18.6365 79.6539 18.6365C79.2621 18.6757 78.8696 18.7149 78.4778 18.7541C78.0853 18.8325 77.6545 18.9502 77.3017 19.1462C76.9488 19.3031 76.596 19.5775 76.3608 19.8912C76.0859 20.244 75.9683 20.6754 76.0073 21.1459C76.0073 21.4987 76.0859 21.8516 76.2035 22.1653C76.3211 22.4397 76.5174 22.675 76.7526 22.8318C76.9878 22.9887 77.223 23.1063 77.4973 23.1847C77.7721 23.2632 78.0463 23.3023 78.3212 23.3023C78.752 23.3023 79.2225 23.2239 79.6539 23.0671C79.9678 22.9103 80.2816 22.7142 80.5168 22.479C80.5558 22.7142 80.6734 22.9103 80.8697 23.0671C81.1049 23.2239 81.3791 23.3023 81.693 23.2632C81.8496 23.2632 82.0068 23.2632 82.1634 23.2239C82.32 23.1847 82.5163 23.1455 82.6729 23.0671C82.3597 22.6358 82.242 22.0477 82.281 21.4595ZM80.3596 21.2243C80.3596 21.3027 80.3206 21.4203 80.242 21.4987C80.164 21.6164 80.0464 21.6948 79.9288 21.7732C79.7715 21.8516 79.6539 21.93 79.4973 21.9692C79.3401 22.0085 79.1445 22.0477 78.9482 22.0477C78.6344 22.0869 78.3602 21.9692 78.125 21.734C77.9677 21.538 77.8897 21.2635 77.8897 21.0283C77.8897 20.793 77.9287 20.5969 78.0853 20.4009C78.2036 20.244 78.3602 20.0872 78.5564 20.0088C78.752 19.8912 78.9872 19.8128 79.2225 19.8128C79.4577 19.7736 79.6929 19.7343 79.9678 19.7343H80.164H80.3596V21.2243Z" fill="#002E47"/>
<path d="M78.3604 24.0077C78.3214 24.0077 78.2817 24.0077 78.2428 24.0077C77.9289 24.0077 77.5761 23.9685 77.2622 23.8508C76.9094 23.7724 76.5962 23.6156 76.3213 23.3803C76.0081 23.1451 75.7722 22.8314 75.5767 22.4785C75.3804 22.0864 75.3018 21.6159 75.3018 21.1846C75.2628 20.5965 75.459 20.0476 75.7722 19.577C76.0861 19.185 76.4389 18.8713 76.8704 18.6753C76.6742 18.6753 76.4786 18.5968 76.361 18.44C76.1647 18.2439 76.0471 17.9695 75.9295 17.7342C75.8509 17.5382 75.7722 17.3029 75.7333 17.0677C75.7333 17.0285 75.7333 16.9892 75.7333 16.9501C75.7722 16.5972 75.9295 16.2835 76.2037 16.0875C76.4389 15.8914 76.7138 15.7346 76.988 15.6561C77.3019 15.5385 77.6547 15.4209 78.0075 15.3817C78.3994 15.3033 78.8308 15.264 79.2226 15.264C79.7327 15.264 80.2422 15.3033 80.7523 15.4601C81.1831 15.5778 81.6145 15.813 81.9284 16.1266C82.2422 16.4404 82.4775 16.8324 82.5951 17.2637C82.7127 17.7342 82.7907 18.1655 82.7517 18.636V21.4199V21.4591C82.7127 21.9295 82.7907 22.4001 83.0259 22.8314C83.1045 22.9882 83.1045 23.1842 83.0655 23.3411C82.9869 23.498 82.8693 23.6547 82.7127 23.694C82.5164 23.7724 82.3202 23.8508 82.085 23.89C81.8894 23.9292 81.6932 23.9292 81.4969 23.9685C81.0655 24.0076 80.6736 23.89 80.3208 23.6547C80.3208 23.6547 80.2818 23.6547 80.2818 23.6156C80.2422 23.5764 80.1642 23.5371 80.1246 23.4587C80.0069 23.5371 79.8503 23.6156 79.6938 23.6547C79.3799 23.89 78.8698 24.0077 78.3604 24.0077ZM78.1251 19.5379C77.9289 19.577 77.7723 19.6555 77.5761 19.7731C77.2622 19.9299 77.027 20.126 76.8314 20.3612C76.6742 20.5965 76.5962 20.8709 76.5962 21.1846V21.2238C76.5962 21.4983 76.6352 21.7335 76.7528 21.9688C76.8314 22.1256 76.949 22.2825 77.1056 22.4001C77.2622 22.5177 77.4195 22.5961 77.6151 22.6354C77.8113 22.7138 78.0465 22.7138 78.2428 22.7138C78.439 22.7138 78.6346 22.7138 78.8308 22.6745C78.3994 22.6745 77.9685 22.5177 77.6547 22.1648L77.6151 22.1256C77.3408 21.8119 77.2232 21.4199 77.2232 21.0278C77.2232 20.6749 77.3019 20.322 77.5371 20.0476C77.7333 19.8123 77.9289 19.6555 78.1251 19.5379ZM81.1831 22.5961C81.3013 22.6745 81.4579 22.7138 81.5755 22.6745H81.6145H81.7321C81.6145 22.2433 81.5755 21.8119 81.6145 21.3807V18.5968C81.6145 18.2439 81.5755 17.8911 81.4969 17.5774C81.4189 17.3813 81.3403 17.1853 81.1441 16.9892C80.9875 16.8324 80.7523 16.7148 80.517 16.6364C80.1246 16.5187 79.7327 16.4795 79.3403 16.4795C78.9874 16.4795 78.6742 16.5187 78.3214 16.558C78.0465 16.5972 77.7723 16.6756 77.4974 16.7932C77.3408 16.8324 77.1842 16.9108 77.0666 17.0285C77.0666 17.0677 77.1056 17.1069 77.1056 17.1069C77.2622 17.0285 77.4195 16.9501 77.6151 16.8716C78.0465 16.6756 78.517 16.5972 78.9874 16.5972C79.4579 16.558 79.929 16.6756 80.3208 16.9501C80.3598 16.9892 80.3994 16.9892 80.3994 17.0285C80.7523 17.3813 80.9478 17.8518 80.9089 18.3615V18.5968C80.9089 18.8321 80.7912 18.9889 80.6346 19.1065C80.8302 19.2241 80.9478 19.4202 80.9478 19.6555V21.1846V21.2238C80.9478 21.4591 80.8302 21.6943 80.6736 21.8512V21.8904C80.8699 21.9688 81.0265 22.1648 81.0655 22.4001C81.1051 22.5177 81.1441 22.5569 81.1831 22.5961ZM78.6346 21.3022C78.7132 21.3807 78.7918 21.3807 78.9094 21.3807H78.9874C79.105 21.3807 79.2226 21.3807 79.3403 21.3414C79.4579 21.3022 79.5365 21.2631 79.6541 21.2238C79.6937 21.1846 79.7327 21.1846 79.7717 21.1454V20.4005C79.6151 20.4005 79.4975 20.4396 79.3403 20.4396C79.1837 20.4788 79.0271 20.5181 78.8698 20.5965C78.7918 20.6357 78.6742 20.7141 78.6346 20.7925C78.5956 20.8317 78.5566 20.9102 78.5956 20.9886V21.0278C78.5566 21.1454 78.5956 21.2238 78.6346 21.3022ZM78.9874 17.9695C78.6742 17.9695 78.3994 18.0087 78.1251 18.1263C77.9686 18.2047 77.8113 18.2439 77.6547 18.3224C77.8899 18.2439 78.1251 18.1655 78.3604 18.1263C78.7522 18.0479 79.105 18.0087 79.4975 18.0087C79.3799 17.9695 79.2226 17.9303 79.066 17.9303C79.066 17.9695 79.0271 17.9695 78.9874 17.9695Z" fill="#002E47"/>
<path d="M16.8014 18.7144L9.03809 16.0873L19.8598 12.0096L24.9961 10.0884L19.8598 26.3601L16.8014 18.7144Z" fill="#002E47"/>
<path d="M9.03809 16.1273H15.7821H19.8598V12.0887L9.03809 16.1273Z" fill="#FF9D28"/>
<path d="M19.8594 12.0885V26.4389L24.9957 10.1672L19.8594 12.0885Z" fill="#69C3EA"/>
<path d="M19.8599 16.1273H15.7822L19.8599 26.4393V16.1273Z" fill="#004F80"/>
<path d="M9.03809 16.1273L16.8014 18.7935L15.7821 16.1273H9.03809Z" fill="#E14748"/>
<path d="M33.8578 22.6358C33.7793 22.7142 33.6617 22.7926 33.5441 22.871C33.3872 22.9887 33.1912 23.0671 32.9952 23.1455C32.7207 23.2631 32.4462 23.3024 32.1718 23.3808C31.8189 23.4592 31.4268 23.4984 31.0739 23.4592C30.3682 23.4592 29.6624 23.3416 28.9959 23.0671C28.4469 22.8319 27.9372 22.479 27.5452 22.0084C27.1531 21.5379 26.8786 20.989 26.7217 20.3617C26.5257 19.6951 26.4473 18.9894 26.4473 18.2836C26.4473 17.5778 26.5257 16.8721 26.7217 16.2055C26.8786 15.6174 27.1923 15.0293 27.5843 14.5588C27.9764 14.0882 28.4861 13.6962 29.0351 13.4609C29.6624 13.1865 30.3682 13.0688 31.0739 13.0688C31.4268 13.0688 31.7797 13.108 32.1326 13.1865C32.407 13.2649 32.6815 13.3433 32.956 13.4217C33.152 13.5001 33.3481 13.6177 33.5441 13.7354C33.6617 13.8138 33.7793 13.8922 33.8969 14.0098C33.9754 14.0882 34.0538 14.2059 34.1322 14.2843C34.2107 14.4019 34.2498 14.5196 34.2107 14.6372C34.2107 14.8724 34.1322 15.0685 33.9754 15.2645C33.8186 15.4605 33.6617 15.6566 33.5049 15.8134C33.3872 15.6958 33.2305 15.5782 33.1128 15.4605C32.956 15.3429 32.7991 15.2253 32.6031 15.1469C32.407 15.0293 32.1718 14.9508 31.9758 14.9117C31.7013 14.8332 31.466 14.794 31.1915 14.8332C30.3289 14.794 29.5448 15.2253 29.1135 15.9311C28.9175 16.284 28.7606 16.6369 28.6822 17.0681C28.6038 17.4995 28.5645 17.9307 28.5645 18.3621C28.5645 18.7933 28.6038 19.2638 28.6822 19.6951C28.7606 20.0872 28.9175 20.4793 29.1527 20.8322C29.388 21.1458 29.6624 21.4203 30.0153 21.6163C30.6818 21.9301 31.3876 22.0084 32.0934 21.8124C32.2894 21.734 32.5246 21.6556 32.7207 21.5772C32.8775 21.4987 33.0344 21.3811 33.1912 21.2635C33.3088 21.1458 33.4265 21.0675 33.5441 20.989L33.7401 21.2635C33.8186 21.3419 33.8969 21.4596 33.9754 21.5772C34.0538 21.6948 34.093 21.8124 34.1322 21.8908C34.1714 21.9693 34.2107 22.0869 34.2107 22.2045C34.2107 22.3222 34.1714 22.4398 34.1322 22.5182C34.0538 22.479 33.9754 22.5574 33.8578 22.6358Z" fill="white"/>
<path d="M41.5422 21.4986C41.503 22.0867 41.6207 22.6749 41.8951 23.2238C41.7383 23.3022 41.5814 23.3414 41.3854 23.3807C41.2286 23.4199 41.0717 23.4199 40.9148 23.4199C40.6404 23.4199 40.3267 23.3807 40.0915 23.2238C39.8955 23.067 39.7778 22.8709 39.7386 22.6357C39.5034 22.8709 39.1896 23.067 38.876 23.2238C38.4447 23.3807 38.0134 23.4591 37.5429 23.4591C37.2685 23.4591 36.994 23.4198 36.7195 23.3414C36.4451 23.2631 36.2098 23.1454 36.0138 22.9886C35.7785 22.7925 35.5825 22.5573 35.4648 22.322C35.308 22.0084 35.2295 21.6555 35.2688 21.3026C35.2688 20.8713 35.3864 20.44 35.6216 20.0479C35.8569 19.7342 36.1706 19.4598 36.5235 19.3029C36.8763 19.1069 37.3077 18.9892 37.6997 18.9108C38.0918 18.8324 38.4839 18.7932 38.876 18.7932H39.2289H39.5425V18.5187C39.5818 18.2051 39.4641 17.9306 39.2289 17.6954C38.9152 17.4993 38.6015 17.4209 38.2487 17.4601C37.8566 17.4601 37.4645 17.5385 37.1116 17.6561C36.7587 17.813 36.4451 17.9698 36.1314 18.1266C35.9745 17.9698 35.8569 17.7738 35.7785 17.5778C35.7001 17.4209 35.6609 17.264 35.6609 17.1072C35.6609 16.9504 35.7785 16.7935 35.8961 16.7152C36.0921 16.5583 36.2882 16.4407 36.5235 16.3623C36.8371 16.2446 37.1508 16.1662 37.4645 16.127C37.8173 16.0486 38.2094 16.0094 38.5623 16.0486C39.0329 16.0486 39.5034 16.0878 39.9346 16.2054C40.2875 16.2838 40.6012 16.4799 40.8365 16.7152C41.0717 16.9504 41.2677 17.264 41.3462 17.5778C41.4638 17.9698 41.503 18.3619 41.503 18.7932L41.5422 21.4986ZM39.621 19.7734H39.4249C39.3465 19.7734 39.2681 19.7734 39.2289 19.7734C38.9936 19.7734 38.7192 19.8127 38.4839 19.8518C38.2487 19.8911 38.0526 19.9695 37.8173 20.0479C37.6213 20.1263 37.4645 20.2832 37.3468 20.44C37.2292 20.636 37.1508 20.8713 37.1508 21.1065C37.1508 21.381 37.2292 21.6162 37.3861 21.8123C37.5821 22.0476 37.8958 22.126 38.2094 22.126C38.4055 22.126 38.5623 22.0867 38.7584 22.0476C38.9152 22.0084 39.072 21.9299 39.1896 21.8515C39.3073 21.7731 39.4249 21.6947 39.5034 21.577C39.5818 21.4986 39.621 21.4202 39.621 21.3026V19.7734Z" fill="white"/>
<path d="M45.2671 16.8329C45.4632 16.5976 45.7376 16.4016 46.0121 16.2447C46.4042 16.0487 46.8355 15.9311 47.306 15.9703C47.6589 15.9703 48.0117 16.0487 48.3646 16.1663C48.7175 16.2839 48.9919 16.5192 49.2664 16.7544C49.5409 17.0682 49.7762 17.4602 49.8938 17.8523C50.0506 18.4012 50.129 18.9893 50.129 19.5383C50.129 20.2048 50.0506 20.8322 49.8545 21.4595C49.6977 21.8909 49.4625 22.2829 49.1488 22.6358C48.8743 22.9103 48.5607 23.1455 48.2078 23.2632C47.8549 23.3808 47.502 23.42 47.1491 23.4592C46.9139 23.4592 46.6394 23.42 46.4042 23.3808C46.2082 23.3416 46.0121 23.2632 45.8553 23.1455C45.7376 23.0671 45.62 22.9887 45.5024 22.9103C45.4632 22.8711 45.3847 22.7926 45.3456 22.7535V26.4391H43.3066V16.1663L43.5027 16.1271C43.5811 16.1271 43.6595 16.0879 43.6988 16.0879H43.9732C44.2477 16.0879 44.5613 16.1271 44.8358 16.2447C45.0318 16.4016 45.1887 16.5976 45.2671 16.8329ZM47.9333 19.5775C47.9333 19.3031 47.8941 19.0286 47.8549 18.7541C47.8157 18.5189 47.7372 18.2836 47.6196 18.0876C47.502 17.8915 47.3452 17.7347 47.1491 17.6563C46.9139 17.5386 46.6786 17.4994 46.4434 17.4994C46.1297 17.4602 45.816 17.5386 45.5808 17.7347C45.4239 17.8523 45.3456 18.0484 45.3456 18.2444V21.4203C45.4632 21.538 45.62 21.6164 45.7768 21.6948C46.0121 21.8124 46.2473 21.8516 46.4826 21.8516C46.9531 21.8909 47.3844 21.6556 47.5805 21.2635C47.8549 20.7538 47.9725 20.1657 47.9333 19.5775Z" fill="white"/>
<path d="M51.6197 22.1652C51.5413 21.9691 51.5021 21.7339 51.5021 21.5379C51.5021 21.3026 51.4629 21.1065 51.4629 20.8713V13.9313L51.6981 13.8921C51.7765 13.8921 51.855 13.8529 51.9334 13.8529H52.1686C52.3255 13.8529 52.4823 13.8529 52.6391 13.8921C52.796 13.9313 52.9528 13.9705 53.0705 14.0881C53.1881 14.1666 53.3057 14.3234 53.3841 14.441C53.4626 14.6371 53.5017 14.8331 53.5017 15.0292V16.0878H55.5798V17.5778H53.5017V20.7536C53.5017 21.4594 53.7762 21.8123 54.3643 21.8123C54.482 21.8123 54.6388 21.7731 54.7564 21.7339C54.874 21.6947 54.9917 21.6555 55.1093 21.5771C55.1878 21.5379 55.3054 21.4594 55.3838 21.4202C55.423 21.381 55.5014 21.3418 55.5406 21.3026C55.6582 21.4986 55.7759 21.6555 55.8935 21.8907C55.9719 22.0476 56.0111 22.1652 56.0111 22.3612C56.0111 22.5181 55.9719 22.6357 55.8543 22.7533C55.7366 22.9102 55.5798 23.0278 55.423 23.1062C55.1878 23.2238 54.9917 23.3023 54.7172 23.3807C54.4428 23.4591 54.1291 23.4983 53.8546 23.4591C53.3449 23.4983 52.8352 23.3807 52.4039 23.1062C52.0118 22.8709 51.7765 22.5573 51.6197 22.1652Z" fill="white"/>
<path d="M60.7535 21.9695C60.9888 21.9695 61.1848 21.9302 61.4201 21.891C61.5769 21.8518 61.773 21.7734 61.9298 21.695C62.0866 21.6166 62.2043 21.5381 62.3219 21.4205L62.6355 21.1461C62.7924 21.3421 62.91 21.5381 63.0276 21.7342C63.1453 21.891 63.2237 22.0871 63.2237 22.3223C63.1845 22.5576 63.0669 22.7928 62.8316 22.9104C62.5572 23.1065 62.2434 23.2242 61.9298 23.3025C61.4985 23.4202 61.028 23.4986 60.5967 23.4594C60.1262 23.4594 59.6557 23.381 59.2244 23.2633C58.7931 23.1457 58.3618 22.9497 58.0089 22.636C57.6168 22.3223 57.3424 21.9302 57.1463 21.4597C56.911 20.8716 56.7934 20.205 56.8326 19.5385C56.8326 18.9896 56.911 18.4406 57.1463 17.9309C57.3031 17.4996 57.5776 17.1075 57.9305 16.7939C58.2442 16.5194 58.6363 16.2842 59.0283 16.1273C59.4204 16.0097 59.8517 15.9313 60.283 15.9313C60.7535 15.9313 61.2632 16.0097 61.6946 16.2057C62.0474 16.3625 62.4003 16.5978 62.6355 16.9115C62.8708 17.2251 63.0669 17.5389 63.1845 17.9309C63.3021 18.323 63.3413 18.7151 63.3413 19.1072V19.3032V19.5777C63.3413 19.5777 63.3413 19.7738 63.3413 19.8522C63.3413 19.9306 63.3413 19.9698 63.3021 20.0482H58.8715C58.9107 20.5579 59.0675 21.0284 59.3812 21.4205C59.6557 21.8126 60.2046 22.0087 60.7535 21.9695ZM61.4201 18.9503C61.4201 18.5583 61.3417 18.127 61.1456 17.7741C60.9104 17.4604 60.5182 17.2644 60.1262 17.3428C59.7341 17.3428 59.3812 17.4996 59.1459 17.7741C58.8715 18.127 58.7539 18.5191 58.7931 18.9503H61.4201Z" fill="white"/>
<path d="M66.7923 16.8723C66.8707 16.7547 66.9491 16.6763 67.0276 16.5586C67.1452 16.441 67.2628 16.3234 67.3805 16.2449C67.5373 16.1665 67.6941 16.0881 67.8509 16.0097C68.047 15.9313 68.2038 15.9313 68.3999 15.9313C68.5175 15.9313 68.6743 15.9313 68.7919 15.9705C68.9096 15.9705 69.0664 16.0097 69.184 16.0881C69.3017 16.1273 69.3801 16.2057 69.4585 16.3234C69.5369 16.441 69.5761 16.5586 69.5761 16.6763C69.5761 16.9507 69.4977 17.186 69.4193 17.4212C69.3409 17.6565 69.2233 17.8917 69.1056 18.127C68.9488 18.0094 68.7919 17.8917 68.5959 17.8133C68.3999 17.7349 68.2038 17.6957 68.0078 17.6957C67.7333 17.6957 67.4588 17.7741 67.2236 17.9701C67.0276 18.127 66.9099 18.3622 66.9099 18.5975V23.4594H64.8711V16.1665L65.0671 16.1273C65.1455 16.1273 65.2239 16.0881 65.2632 16.0881H65.5376C65.8121 16.0881 66.1258 16.1273 66.361 16.2842C66.5962 16.441 66.7531 16.637 66.7923 16.8723Z" fill="white"/>
<path d="M72.5562 16.8723C72.6346 16.7547 72.713 16.6763 72.7916 16.5586C72.9092 16.441 73.0268 16.3625 73.1445 16.2449C73.301 16.1665 73.4576 16.0881 73.6149 16.0097C73.8111 15.9313 73.9677 15.9313 74.164 15.9313C74.2816 15.9313 74.4382 15.9313 74.5558 15.9705C74.6734 15.9705 74.791 16.0097 74.9086 16.0881C75.0262 16.1273 75.1049 16.2057 75.1828 16.3234C75.2615 16.441 75.3011 16.5586 75.3011 16.6763C75.3011 16.9507 75.2225 17.186 75.1439 17.4212C75.0652 17.6565 74.9476 17.8917 74.83 18.127C74.6734 18.0094 74.5168 17.8917 74.3206 17.8133C74.1243 17.7349 73.9288 17.6957 73.7325 17.6957C73.4576 17.6957 73.1834 17.7741 72.9482 17.9701C72.752 18.127 72.6346 18.3622 72.6346 18.5975V23.4594H70.5957V16.1665L70.7917 16.1273C70.8702 16.1273 70.9486 16.0881 70.9878 16.0881H71.2623C71.5367 16.0881 71.8504 16.1273 72.0857 16.2842C72.3601 16.4018 72.5169 16.637 72.5562 16.8723Z" fill="white"/>
<path d="M82.2807 21.4986C82.241 22.0867 82.3593 22.6749 82.6335 23.2238C82.4769 23.3022 82.3197 23.3414 82.1234 23.3807C81.9668 23.4199 81.8102 23.4199 81.653 23.4199C81.3788 23.4199 81.0649 23.3807 80.8297 23.2238C80.6341 23.067 80.5158 22.8709 80.4768 22.6357C80.2416 22.8709 79.9278 23.067 79.6146 23.2238C79.1831 23.3807 78.7516 23.4591 78.2812 23.4591C78.007 23.4591 77.7321 23.4198 77.4579 23.3414C77.1837 23.2631 76.9485 23.1454 76.7126 22.9886C76.4774 22.8317 76.2818 22.5965 76.1642 22.322C76.0069 22.0084 75.929 21.6555 75.9679 21.3026C75.929 20.8713 76.0855 20.44 76.3208 20.0479C76.556 19.7342 76.8698 19.4598 77.2227 19.3029C77.5755 19.1069 78.007 18.9892 78.3988 18.9108C78.7913 18.8324 79.1831 18.7932 79.5749 18.7932H79.9278H80.2806V18.5187C80.3202 18.2051 80.2026 17.9306 79.9674 17.6954C79.6536 17.4993 79.3397 17.4209 78.9869 17.4601C78.595 17.4601 78.2026 17.5385 77.8497 17.6561C77.4969 17.813 77.1837 17.9698 76.8698 18.1266C76.7126 17.9698 76.595 17.7738 76.517 17.5778C76.4384 17.4209 76.3994 17.264 76.3994 17.1072C76.3994 16.9504 76.517 16.7935 76.6346 16.7152C76.8302 16.5583 77.0264 16.4407 77.2617 16.3623C77.5755 16.2446 77.8894 16.1662 78.2026 16.127C78.5554 16.0486 78.9479 16.0094 79.3007 16.0486C79.7712 16.0486 80.2416 16.0878 80.6731 16.2054C81.0259 16.2838 81.3398 16.4799 81.575 16.7152C81.8102 16.9504 82.0058 17.264 82.0844 17.5778C82.202 17.9698 82.241 18.3619 82.241 18.7932L82.2807 21.4986ZM80.3592 19.7734H80.163C80.085 19.7734 80.0064 19.7734 79.9674 19.7734C79.7322 19.7734 79.4573 19.8127 79.2221 19.8518C78.9869 19.8911 78.7913 19.9695 78.5554 20.0479C78.3598 20.1263 78.2026 20.2832 78.085 20.44C77.9673 20.636 77.8894 20.8321 77.8894 21.0673C77.8894 21.3418 77.9673 21.577 78.1246 21.7731C78.3202 22.0084 78.634 22.0867 78.9479 22.0867C79.1441 22.0867 79.3007 22.0476 79.497 22.0084C79.6536 21.9691 79.8102 21.8907 79.9278 21.8123C80.0454 21.7339 80.163 21.6555 80.2416 21.5379C80.3202 21.4594 80.3592 21.381 80.3592 21.2634V19.7734Z" fill="white"/>
<path d="M41.5813 35.1043C41.4637 35.1043 41.3068 35.0651 41.1892 35.0259L39.8953 34.3593C39.8169 34.3201 39.7777 34.3201 39.6992 34.3201C39.6209 34.3201 39.5424 34.3201 39.5032 34.3593L38.2093 35.0259C38.0917 35.1043 37.9348 35.1435 37.8172 35.1043C37.582 35.1043 37.3467 34.9866 37.1899 34.8298C37.0331 34.6338 36.9546 34.3985 36.9938 34.1633L37.2291 32.7125C37.2683 32.5557 37.1899 32.4381 37.1115 32.3205L36.0528 31.301C35.8176 31.0658 35.7391 30.7521 35.8568 30.4384C35.9352 30.1247 36.2096 29.9287 36.5234 29.8503L37.9741 29.615C38.1309 29.5758 38.2485 29.4974 38.3269 29.3798L38.9543 28.0859C39.1503 27.6546 39.66 27.4978 40.0914 27.6938C40.2482 27.7722 40.405 27.929 40.4835 28.0859L41.15 29.3798C41.2284 29.4974 41.3461 29.615 41.5029 29.615L42.9536 29.8111C43.2672 29.8503 43.5417 30.0856 43.6201 30.3992C43.6986 30.7129 43.6201 31.0265 43.3849 31.2618L42.287 32.3205C42.1694 32.4381 42.1302 32.5557 42.1694 32.7125L42.4047 34.1633C42.4439 34.3985 42.4047 34.673 42.2478 34.869C42.0518 35.0259 41.8165 35.1435 41.5813 35.1043Z" fill="#FF9D28"/>
<path d="M39.6988 27.8115C39.9341 27.8115 40.1693 27.9684 40.287 28.1644L40.9143 29.4583C40.9928 29.6543 41.1888 29.772 41.3848 29.8112L42.8356 30.0072C43.1884 30.0464 43.4237 30.3993 43.3845 30.7522C43.3453 30.909 43.3061 31.0267 43.1884 31.1051L42.1298 32.1245C41.973 32.2814 41.8945 32.4774 41.9337 32.7126L42.169 34.1242C42.2082 34.477 41.973 34.7907 41.6201 34.8691C41.5025 34.8691 41.3456 34.8691 41.228 34.7907L39.9341 34.1242C39.7381 34.0065 39.5028 34.0065 39.346 34.1242L38.1305 34.8299C37.8168 34.9868 37.4248 34.8691 37.2679 34.5163C37.1895 34.3987 37.1895 34.281 37.1895 34.1634L37.4248 32.7518C37.4639 32.5558 37.3855 32.3206 37.2287 32.1637L36.1701 31.1443C35.8956 30.909 35.8956 30.4777 36.1701 30.2425C36.2877 30.1248 36.4053 30.0857 36.5229 30.0464L37.9736 29.8504C38.1697 29.8112 38.3657 29.6936 38.4441 29.4975L39.0715 28.2036C39.2283 27.9684 39.4636 27.8115 39.6988 27.8115ZM39.6988 27.4194C39.3067 27.4194 38.9147 27.6547 38.7578 28.0076L38.1305 29.3015C38.0913 29.3799 38.0129 29.4191 37.9345 29.4191L36.4837 29.6151C36.0916 29.6543 35.778 29.9288 35.6603 30.3209C35.5427 30.713 35.6211 31.1051 35.9348 31.3795L36.9934 32.399C37.0718 32.4382 37.0719 32.5558 37.0719 32.6342L36.7974 34.0849C36.7582 34.3987 36.8366 34.7123 37.0327 34.9475C37.2287 35.1828 37.5031 35.3396 37.8168 35.3396C37.9736 35.3396 38.1697 35.3004 38.2874 35.222L39.5812 34.5163C39.6596 34.477 39.7381 34.477 39.8164 34.5163L41.1104 35.1828C41.2672 35.2612 41.424 35.3004 41.5809 35.3004C41.8945 35.3004 42.169 35.1436 42.3651 34.9084C42.5611 34.6731 42.6395 34.3594 42.6003 34.0458L42.3651 32.6342C42.3651 32.5558 42.3651 32.4774 42.4435 32.399L43.4629 31.4188C43.7374 31.1443 43.855 30.713 43.7374 30.3601C43.6197 29.9681 43.3061 29.6936 42.9139 29.6543L41.4632 29.4583C41.3848 29.4583 41.3064 29.3799 41.2672 29.3407L40.6399 28.0468C40.4438 27.6547 40.0909 27.4194 39.6988 27.4194Z" fill="#FF9D28"/>
<path d="M86.7498 35.1827C86.7109 35.1827 86.6719 35.1434 86.6719 35.1042V12.9904C86.6719 12.9512 86.7109 12.912 86.7498 12.912C86.7895 12.912 86.8285 12.9512 86.8285 12.9904V35.1042C86.8285 35.1434 86.7895 35.1827 86.7498 35.1827Z" fill="#68C5ED"/>
<path d="M98.8661 27.1057H97.729V29.1054H94.9843V27.1057H90.8672V25.0669L95.1805 18.7543H97.768V25.0277H98.9051V27.1057H98.8661ZM94.9453 25.0277V23.8122C94.9453 23.577 94.9453 23.2632 94.9843 22.9104C94.9843 22.5183 95.0233 22.3223 95.0233 22.3223H94.9453C94.788 22.6751 94.5925 23.028 94.3962 23.3417L93.2591 25.0277H94.9453Z" fill="#68C5ED"/>
<path d="M99.6895 27.9289C99.6895 27.4976 99.8071 27.1448 100.081 26.9095C100.356 26.6743 100.709 26.5566 101.218 26.5566C101.689 26.5566 102.042 26.6743 102.277 26.9095C102.512 27.1448 102.669 27.4976 102.669 27.9289C102.669 28.3602 102.552 28.6739 102.277 28.9091C102.003 29.1444 101.65 29.2621 101.218 29.2621C100.748 29.2621 100.395 29.1444 100.121 28.9091C99.8071 28.7131 99.6895 28.3602 99.6895 27.9289Z" fill="#68C5ED"/>
<path d="M111.569 27.1057H110.431V29.1054H107.687V27.1057H103.57V25.0669L107.883 18.7543H110.471V25.0277H111.608V27.1057H111.569ZM107.648 25.0277V23.8122C107.648 23.577 107.648 23.2632 107.687 22.9104C107.687 22.5183 107.726 22.3223 107.726 22.3223H107.648C107.491 22.6751 107.295 23.028 107.099 23.3417L105.962 25.0669H107.648V25.0277Z" fill="#68C5ED"/>
<path d="M49.6981 27.8115C49.9333 27.8115 50.1686 27.9684 50.2862 28.1644L50.9136 29.4583C50.992 29.6543 51.188 29.772 51.3841 29.8112L52.8348 30.0072C53.1876 30.0464 53.4229 30.3993 53.3837 30.7522C53.3445 30.909 53.3053 31.0267 53.1876 31.1051L52.129 32.1245C51.9722 32.2814 51.8938 32.4774 51.933 32.7126L52.1682 34.1242C52.2467 34.477 52.0114 34.7907 51.6585 34.8691C51.6193 34.8691 51.5801 34.8691 51.5409 34.8691C51.4233 34.8691 51.3448 34.8299 51.2272 34.7907L49.9333 34.1242C49.7373 34.0065 49.502 34.0065 49.3452 34.1242L48.0513 34.7907C47.7376 34.9475 47.3455 34.8299 47.1887 34.5163C47.1103 34.3987 47.1103 34.2418 47.1103 34.0849L47.3455 32.6735C47.3847 32.4774 47.3063 32.2421 47.1495 32.0853L46.13 31.1051C45.8556 30.8698 45.8556 30.4385 46.13 30.2033C46.2477 30.0857 46.3653 30.0464 46.4829 30.0072L47.9337 29.8112C48.1297 29.772 48.3258 29.6543 48.4042 29.4583L49.0315 28.1644C49.2275 27.9684 49.4628 27.8115 49.6981 27.8115ZM49.6981 27.4194C49.306 27.4194 48.9531 27.6547 48.757 28.0076L48.1297 29.3015C48.0905 29.3799 48.0121 29.4191 47.9337 29.4191L46.4829 29.6151C45.934 29.6936 45.5419 30.2033 45.6203 30.7914C45.6595 31.0267 45.7772 31.2227 45.934 31.3795L46.9926 32.399C47.0711 32.4382 47.0711 32.5558 47.0711 32.6342L46.8358 34.0458C46.7966 34.3594 46.875 34.6731 47.0711 34.9084C47.2671 35.1436 47.5416 35.3004 47.8552 35.3004C48.0121 35.3004 48.2081 35.2613 48.3258 35.1828L49.6196 34.5163C49.6589 34.5163 49.6981 34.477 49.7373 34.477C49.7765 34.477 49.8157 34.477 49.8549 34.5163L51.1488 35.1828C51.3056 35.2613 51.4625 35.3004 51.6193 35.3004C51.933 35.3004 52.2074 35.1436 52.4035 34.9084C52.5995 34.6731 52.6779 34.3594 52.6388 34.0458L52.4035 32.6342C52.4035 32.5558 52.4035 32.4774 52.4819 32.399L53.5405 31.3795C53.9326 30.9874 53.9719 30.3209 53.5797 29.9288C53.4229 29.772 53.1876 29.6543 52.9916 29.6151L51.5409 29.4191C51.4624 29.4191 51.3841 29.3407 51.3448 29.3015L50.7175 28.0076C50.443 27.6547 50.0901 27.4194 49.6981 27.4194Z" fill="#FF9D28"/>
<path d="M49.6981 27.8115C49.9333 27.8115 50.1686 27.9684 50.2862 28.1644L50.9136 29.4583C50.992 29.6543 51.188 29.772 51.3841 29.8112L52.8348 30.0072C53.1876 30.0464 53.4229 30.3993 53.3837 30.7522C53.3445 30.909 53.3053 31.0267 53.1876 31.1051L52.129 32.1245C51.9722 32.2814 51.8938 32.4774 51.933 32.7126L52.1682 34.1242C52.2467 34.477 52.0114 34.7907 51.6585 34.8691C51.6193 34.8691 51.5801 34.8691 51.5409 34.8691C51.4233 34.8691 51.3448 34.8299 51.2272 34.7907L49.9333 34.1242C49.7373 34.0065 49.502 34.0065 49.3452 34.1242L48.0513 34.7907C47.7376 34.9475 47.3455 34.8299 47.1887 34.5163C47.1103 34.3987 47.1103 34.2418 47.1103 34.0849L47.3455 32.6735C47.3847 32.4774 47.3063 32.2421 47.1495 32.0853L46.13 31.1051C45.8556 30.8698 45.8556 30.4385 46.13 30.2033C46.2477 30.0857 46.3653 30.0464 46.4829 30.0072L47.9337 29.8112C48.1297 29.772 48.3258 29.6543 48.4042 29.4583L49.0315 28.1644C49.2275 27.9684 49.4628 27.8115 49.6981 27.8115ZM49.6981 27.4194C49.306 27.4194 48.9531 27.6547 48.757 28.0076L48.1297 29.3015C48.0905 29.3799 48.0121 29.4191 47.9337 29.4191L46.4829 29.6151C45.934 29.6936 45.5419 30.2033 45.6203 30.7914C45.6595 31.0267 45.7772 31.2227 45.934 31.3795L46.9926 32.399C47.0711 32.4382 47.0711 32.5558 47.0711 32.6342L46.8358 34.0458C46.7966 34.3594 46.875 34.6731 47.0711 34.9084C47.2671 35.1436 47.5416 35.3004 47.8552 35.3004C48.0121 35.3004 48.2081 35.2613 48.3258 35.1828L49.6196 34.5163C49.6589 34.5163 49.6981 34.477 49.7373 34.477C49.7765 34.477 49.8157 34.477 49.8549 34.5163L51.1488 35.1828C51.3056 35.2613 51.4625 35.3004 51.6193 35.3004C51.933 35.3004 52.2074 35.1436 52.4035 34.9084C52.5995 34.6731 52.6779 34.3594 52.6388 34.0458L52.4035 32.6342C52.4035 32.5558 52.4035 32.4774 52.4819 32.399L53.5405 31.3795C53.9326 30.9874 53.9719 30.3209 53.5797 29.9288C53.4229 29.772 53.1876 29.6543 52.9916 29.6151L51.5409 29.4191C51.4624 29.4191 51.3841 29.3407 51.3448 29.3015L50.7175 28.0076C50.443 27.6547 50.0901 27.4194 49.6981 27.4194Z" fill="#FF9D28"/>
<path d="M51.5794 35.1045C51.4617 35.1045 51.3049 35.0653 51.1873 35.0261L49.8933 34.3595C49.8149 34.3204 49.7365 34.3204 49.6973 34.3204C49.6189 34.3204 49.5404 34.3204 49.5013 34.3595L48.2074 35.0261C48.0897 35.1045 47.9329 35.1437 47.8153 35.1045C47.58 35.1045 47.3448 34.9869 47.1487 34.7909C46.9919 34.5948 46.9135 34.3595 46.9527 34.1243L47.1879 32.6736C47.2271 32.5167 47.1487 32.3991 47.0703 32.2815L46.0509 31.3012C45.8156 31.066 45.7372 30.7524 45.8548 30.4386C45.9332 30.125 46.2077 29.8898 46.5214 29.8505L47.9721 29.6545C48.129 29.6153 48.2466 29.5369 48.325 29.4192L48.9916 28.1254C49.1876 27.694 49.6973 27.5372 50.1286 27.7332C50.2854 27.8117 50.4423 27.9685 50.5207 28.1254L51.148 29.4192C51.2265 29.5369 51.3441 29.6545 51.5009 29.6545L52.9517 29.8505C53.4222 29.9289 53.7358 30.3603 53.6574 30.8308C53.6182 31.0268 53.5398 31.1836 53.4222 31.3012L52.3635 32.3207C52.2458 32.4383 52.2067 32.5559 52.2459 32.7128L52.4811 34.1635C52.5203 34.3988 52.442 34.6732 52.2851 34.8301C52.0498 35.0261 51.8146 35.1045 51.5794 35.1045Z" fill="#FF9D28"/>
<path d="M49.6981 27.8115C49.9333 27.8115 50.1686 27.9684 50.2862 28.1644L50.9136 29.4583C50.992 29.6543 51.188 29.772 51.3841 29.8112L52.8348 30.0072C53.1876 30.0464 53.4229 30.3993 53.3837 30.7522C53.3445 30.909 53.3053 31.0267 53.1876 31.1051L52.129 32.1245C51.9722 32.2814 51.8938 32.4774 51.933 32.7126L52.1682 34.1242C52.2467 34.477 52.0114 34.7907 51.6585 34.8691C51.6193 34.8691 51.5801 34.8691 51.5409 34.8691C51.4233 34.8691 51.3448 34.8299 51.2272 34.7907L49.9333 34.1242C49.7373 34.0065 49.502 34.0065 49.3452 34.1242L48.0513 34.7907C47.7376 34.9475 47.3455 34.8299 47.1887 34.5163C47.1103 34.3987 47.1103 34.2418 47.1103 34.0849L47.3455 32.6735C47.3847 32.4774 47.3063 32.2421 47.1495 32.0853L46.13 31.1051C45.8556 30.8698 45.8556 30.4385 46.13 30.2033C46.2477 30.0857 46.3653 30.0464 46.4829 30.0072L47.9337 29.8112C48.1297 29.772 48.3258 29.6543 48.4042 29.4583L49.0315 28.1644C49.2275 27.9684 49.4628 27.8115 49.6981 27.8115ZM49.6981 27.4194C49.306 27.4194 48.9531 27.6547 48.757 28.0076L48.1297 29.3015C48.0905 29.3799 48.0121 29.4191 47.9337 29.4191L46.4829 29.6151C45.934 29.6936 45.5419 30.2033 45.6203 30.7914C45.6595 31.0267 45.7772 31.2227 45.934 31.3795L46.9926 32.399C47.0711 32.4382 47.0711 32.5558 47.0711 32.6342L46.8358 34.0458C46.7966 34.3594 46.875 34.6731 47.0711 34.9084C47.2671 35.1436 47.5416 35.3004 47.8552 35.3004C48.0121 35.3004 48.2081 35.2613 48.3258 35.1828L49.6196 34.5163C49.6589 34.5163 49.6981 34.477 49.7373 34.477C49.7765 34.477 49.8157 34.477 49.8549 34.5163L51.1488 35.1828C51.3056 35.2613 51.4625 35.3004 51.6193 35.3004C51.933 35.3004 52.2074 35.1436 52.4035 34.9084C52.5995 34.6731 52.6779 34.3594 52.6388 34.0458L52.4035 32.6342C52.4035 32.5558 52.4035 32.4774 52.4819 32.399L53.5405 31.3795C53.9326 30.9874 53.9719 30.3209 53.5797 29.9288C53.4229 29.772 53.1876 29.6543 52.9916 29.6151L51.5409 29.4191C51.4624 29.4191 51.3841 29.3407 51.3448 29.3015L50.7175 28.0076C50.443 27.6547 50.0901 27.4194 49.6981 27.4194Z" fill="#FF9D28"/>
<path d="M61.1469 35.1043C61.0292 35.1043 60.8724 35.0651 60.7548 35.0259L59.4609 34.3593C59.3433 34.2809 59.1864 34.2809 59.0296 34.3593L57.7357 35.0259C57.6181 35.1043 57.4612 35.1435 57.3436 35.1043C57.1083 35.1043 56.8731 34.9866 56.6771 34.7906C56.5202 34.5945 56.4418 34.3593 56.481 34.124L56.7162 32.6733C56.7555 32.5165 56.6771 32.3989 56.5986 32.2812L55.5792 31.2618C55.3439 31.0265 55.2655 30.7129 55.3831 30.3992C55.4616 30.0856 55.736 29.8503 56.0497 29.8111L57.5004 29.615C57.6573 29.5758 57.7749 29.4974 57.8533 29.3798L58.4807 28.0859C58.6767 27.6546 59.1864 27.4978 59.6177 27.6938C59.7746 27.7722 59.9314 27.929 60.0098 28.0859L60.6372 29.3798C60.7156 29.4974 60.8332 29.615 60.9901 29.615L62.4408 29.8111C62.9112 29.8895 63.225 30.3208 63.1465 30.7521C63.1074 30.9481 63.0289 31.105 62.9113 31.2226L61.8918 32.242C61.7742 32.3596 61.735 32.4773 61.7742 32.6341L62.0095 34.0848C62.0487 34.3201 61.9703 34.5945 61.8134 34.7514C61.6566 34.9866 61.4213 35.1043 61.1469 35.1043Z" fill="#FF9D28"/>
<path d="M59.2653 27.8115C59.5005 27.8115 59.7358 27.9684 59.8534 28.1644L60.4808 29.4583C60.5592 29.6543 60.7552 29.772 60.9513 29.8112L62.402 30.0072C62.7549 30.0464 62.9901 30.3993 62.9509 30.7522C62.9117 30.909 62.8725 31.0267 62.7549 31.1051L61.6963 32.1245C61.5394 32.2814 61.461 32.4774 61.5002 32.7126L61.7354 34.1242C61.8139 34.477 61.5786 34.7907 61.2257 34.8691C61.1865 34.8691 61.1473 34.8691 61.1081 34.8691C60.9905 34.8691 60.912 34.8299 60.7944 34.7907L59.5005 34.1242C59.3045 34.0065 59.0692 34.0065 58.9124 34.1242L57.6185 34.7907C57.3048 34.9475 56.9127 34.8299 56.7559 34.5163C56.6775 34.3987 56.6775 34.2418 56.6775 34.0849L56.9127 32.6735C56.9519 32.4774 56.8736 32.2421 56.7167 32.0853L55.6581 31.0659C55.3836 30.8307 55.3836 30.3993 55.6581 30.1641C55.7757 30.0464 55.8933 30.0072 56.011 29.9681L57.4617 29.772C57.6577 29.7328 57.8538 29.6151 57.9322 29.4191L58.5595 28.1252C58.7948 27.9684 59.03 27.8115 59.2653 27.8115ZM59.2653 27.4194C58.8732 27.4194 58.5203 27.6547 58.3635 28.0076L57.7362 29.3015C57.6969 29.3799 57.6185 29.4191 57.5401 29.4191L56.0893 29.6151C55.5404 29.6936 55.1484 30.2033 55.2268 30.7914C55.266 31.0267 55.3836 31.2227 55.5404 31.3795L56.5991 32.399C56.6775 32.4382 56.6775 32.5558 56.6775 32.6342L56.4422 34.0458C56.403 34.3594 56.4815 34.6731 56.6775 34.9084C56.8736 35.1436 57.148 35.3004 57.4617 35.3004C57.6185 35.3004 57.8145 35.2613 57.9322 35.1828L59.1869 34.477C59.2261 34.477 59.2653 34.4378 59.3045 34.4378C59.3437 34.4378 59.3829 34.4378 59.4221 34.477L60.716 35.1436C60.8728 35.222 61.0297 35.2612 61.1865 35.2612C61.5002 35.2612 61.7746 35.1044 61.9707 34.8691C62.1668 34.6339 62.2451 34.3202 62.206 34.0065L61.9707 32.595C61.9707 32.5166 61.9707 32.4382 62.0491 32.3597L63.147 31.3795C63.5391 30.9874 63.5783 30.3209 63.1862 29.9288C63.0293 29.772 62.8333 29.6543 62.598 29.6151L61.1473 29.4191C61.0689 29.4191 60.9905 29.3407 60.9513 29.3015L60.3239 28.0076C60.0495 27.6547 59.6966 27.4194 59.2653 27.4194Z" fill="#FF9D28"/>
<path d="M71.0667 35.1045C70.9491 35.1045 70.7923 35.0653 70.6747 35.0261L69.3807 34.3595C69.2631 34.2811 69.1062 34.2811 68.9495 34.3595L67.6555 35.0261C67.5379 35.1045 67.3811 35.1437 67.2634 35.1045C67.0282 35.1045 66.7929 34.9869 66.6361 34.7909C66.4793 34.5948 66.4008 34.3595 66.4401 34.1243L66.6753 32.6736C66.7146 32.5167 66.6361 32.3991 66.5577 32.2815L65.5382 31.2621C65.2246 30.9484 65.1854 30.3995 65.5382 30.0858C65.6559 29.9682 65.852 29.8505 66.0087 29.8505L67.4595 29.6545C67.6163 29.6153 67.734 29.5369 67.8124 29.4192L68.4398 28.1254C68.6358 27.694 69.1455 27.5372 69.5768 27.7332C69.7336 27.8117 69.8905 27.9685 69.9688 28.1254L70.5962 29.4192C70.6747 29.5369 70.7923 29.6545 70.9491 29.6545L72.3999 29.8505C72.8705 29.9289 73.1837 30.3603 73.1057 30.7915C73.0661 30.9876 72.9881 31.1444 72.8705 31.2621L71.8509 32.2815C71.7333 32.3991 71.694 32.5167 71.7333 32.6736L71.9685 34.1243C72.0078 34.3595 71.9293 34.634 71.7725 34.8301C71.5764 35.0261 71.3412 35.1437 71.0667 35.1045Z" fill="#FF9D28"/>
<path d="M69.1841 27.8115C69.4193 27.8115 69.6546 27.9684 69.7722 28.1644L70.3995 29.4583C70.4779 29.6543 70.674 29.772 70.87 29.8112L72.3207 30.0072C72.6736 30.0464 72.9091 30.3993 72.8694 30.7522C72.8304 30.909 72.7915 31.0267 72.6736 31.1051L71.6542 32.1245C71.4974 32.2814 71.419 32.4774 71.4581 32.7126L71.6934 34.1242C71.7326 34.477 71.4974 34.7907 71.1445 34.8691C71.0269 34.9084 70.87 34.8691 70.7524 34.7907L69.4585 34.1242C69.2625 34.0065 69.0272 34.0065 68.8703 34.1242L67.5765 34.7907C67.2628 34.9475 66.8707 34.8299 66.7139 34.5163C66.6354 34.3987 66.6354 34.2418 66.6354 34.0849L66.8707 32.6735C66.9099 32.4774 66.8315 32.2421 66.6747 32.0853L65.6552 31.0659C65.3808 30.8307 65.3808 30.3993 65.6552 30.1641C65.7728 30.0464 65.8905 30.0072 66.0081 29.9681L67.4589 29.772C67.6549 29.7328 67.8509 29.6151 67.9294 29.4191L68.5567 28.1252C68.7136 27.9684 68.9488 27.8115 69.1841 27.8115ZM69.2232 27.4194C68.8312 27.4194 68.4783 27.6547 68.2822 28.0076L67.6549 29.3015C67.6157 29.3799 67.5373 29.4191 67.4589 29.4191L66.0081 29.6151C65.6161 29.6543 65.3023 29.9288 65.1847 30.3209C65.0671 30.713 65.1455 31.1051 65.4592 31.3795L66.4787 32.399C66.557 32.4382 66.557 32.5558 66.557 32.6342L66.3218 34.0458C66.2826 34.3594 66.361 34.6731 66.557 34.9084C66.7531 35.1436 67.0275 35.3004 67.3413 35.3004C67.498 35.3004 67.6941 35.2613 67.8118 35.1828L69.1056 34.5163C69.1448 34.5163 69.1841 34.477 69.2232 34.477C69.2625 34.477 69.3017 34.477 69.3409 34.5163L70.6348 35.1828C70.7916 35.2613 70.9484 35.3004 71.1053 35.3004C71.419 35.3004 71.6934 35.1436 71.8895 34.9084C72.0855 34.6731 72.164 34.3594 72.1247 34.0458L71.8895 32.6342C71.8895 32.5558 71.8895 32.4774 71.9679 32.399L72.987 31.3795C73.3795 30.9874 73.4185 30.3209 73.0267 29.9288C72.8694 29.772 72.6736 29.6543 72.4384 29.6151L70.9876 29.4191C70.9093 29.4191 70.8308 29.3407 70.7916 29.3015L70.1643 28.0076C69.9682 27.6547 69.5761 27.4194 69.2232 27.4194Z" fill="#FF9D28"/>
<path d="M59.3045 27.8115C59.5397 27.8115 59.775 27.9684 59.8926 28.1644L60.5199 29.4583C60.5984 29.6543 60.7944 29.772 60.9905 29.8112L62.4412 30.0072C62.7941 30.0464 63.0293 30.3993 62.9901 30.7522C62.9509 30.909 62.9117 31.0267 62.7941 31.1051L61.7746 32.1245C61.6178 32.2814 61.5394 32.4774 61.5786 32.7126L61.8139 34.1242C61.8923 34.477 61.657 34.7907 61.3042 34.8691C61.2649 34.8691 61.2257 34.8691 61.1865 34.8691C61.0689 34.8691 60.9905 34.8299 60.8728 34.7907L59.579 34.1242C59.3829 34.0065 59.1476 34.0065 58.9908 34.1242L57.6969 34.7907C57.3833 34.9475 56.9912 34.8299 56.8343 34.5163C56.7559 34.3987 56.7559 34.2418 56.7559 34.0849L56.9912 32.6735C57.0304 32.4774 56.9519 32.2421 56.7951 32.0853L55.7365 31.0659C55.462 30.8307 55.462 30.3993 55.7365 30.1641C55.8541 30.0464 55.9717 30.0072 56.0893 29.9681L57.5401 29.772C57.7362 29.7328 57.9322 29.6151 58.0106 29.4191L58.6379 28.1252C58.834 27.9684 59.03 27.8115 59.3045 27.8115ZM59.3045 27.4194C58.9124 27.4194 58.5595 27.6547 58.3635 28.0076L57.7362 29.3015C57.6969 29.3799 57.6185 29.4191 57.5401 29.4191L56.0893 29.6151C55.5404 29.6936 55.1484 30.2033 55.2268 30.7914C55.266 31.0267 55.3836 31.2227 55.5404 31.3795L56.5991 32.399C56.6775 32.4382 56.6775 32.5558 56.6775 32.6342L56.4422 34.0458C56.403 34.3594 56.4815 34.6731 56.6775 34.9084C56.8736 35.1436 57.148 35.3004 57.4617 35.3004C57.6185 35.3004 57.8145 35.2613 57.9322 35.1828L59.2261 34.5163C59.2653 34.5163 59.3045 34.477 59.3437 34.477C59.3829 34.477 59.4221 34.477 59.4613 34.5163L60.7552 35.1828C60.9121 35.2613 61.0689 35.3004 61.2257 35.3004C61.5394 35.3004 61.8139 35.1436 62.0099 34.9084C62.206 34.6731 62.2844 34.3594 62.2451 34.0458L62.0099 32.6342C62.0099 32.5558 62.0099 32.4774 62.0883 32.399L63.147 31.3795C63.5391 30.9874 63.5783 30.3209 63.1862 29.9288C63.0293 29.772 62.8333 29.6543 62.598 29.6151L61.1473 29.4191C61.0689 29.4191 60.9905 29.3407 60.9513 29.3015L60.3239 28.0076C60.0495 27.6547 59.6966 27.4194 59.3045 27.4194Z" fill="#FF9D28"/>
<path d="M59.3045 27.8115C59.5397 27.8115 59.775 27.9684 59.8926 28.1644L60.5199 29.4583C60.5984 29.6543 60.7944 29.772 60.9905 29.8112L62.4412 30.0072C62.7941 30.0464 63.0293 30.3993 62.9901 30.7522C62.9509 30.909 62.9117 31.0267 62.7941 31.1051L61.7746 32.1245C61.6178 32.2814 61.5394 32.4774 61.5786 32.7126L61.8139 34.1242C61.8923 34.477 61.657 34.7907 61.3042 34.8691C61.2649 34.8691 61.2257 34.8691 61.1865 34.8691C61.0689 34.8691 60.9905 34.8299 60.8728 34.7907L59.579 34.1242C59.3829 34.0065 59.1476 34.0065 58.9908 34.1242L57.6969 34.7907C57.3833 34.9475 56.9912 34.8299 56.8343 34.5163C56.7559 34.3987 56.7559 34.2418 56.7559 34.0849L56.9912 32.6735C57.0304 32.4774 56.9519 32.2421 56.7951 32.0853L55.7365 31.0659C55.462 30.8307 55.462 30.3993 55.7365 30.1641C55.8541 30.0464 55.9717 30.0072 56.0893 29.9681L57.5401 29.772C57.7362 29.7328 57.9322 29.6151 58.0106 29.4191L58.6379 28.1252C58.834 27.9684 59.03 27.8115 59.3045 27.8115ZM59.3045 27.4194C58.9124 27.4194 58.5595 27.6547 58.3635 28.0076L57.7362 29.3015C57.6969 29.3799 57.6185 29.4191 57.5401 29.4191L56.0893 29.6151C55.5404 29.6936 55.1484 30.2033 55.2268 30.7914C55.266 31.0267 55.3836 31.2227 55.5404 31.3795L56.5991 32.399C56.6775 32.4382 56.6775 32.5558 56.6775 32.6342L56.4422 34.0458C56.403 34.3594 56.4815 34.6731 56.6775 34.9084C56.8736 35.1436 57.148 35.3004 57.4617 35.3004C57.6185 35.3004 57.8145 35.2613 57.9322 35.1828L59.2261 34.5163C59.2653 34.5163 59.3045 34.477 59.3437 34.477C59.3829 34.477 59.4221 34.477 59.4613 34.5163L60.7552 35.1828C60.9121 35.2613 61.0689 35.3004 61.2257 35.3004C61.5394 35.3004 61.8139 35.1436 62.0099 34.9084C62.206 34.6731 62.2844 34.3594 62.2451 34.0458L62.0099 32.6342C62.0099 32.5558 62.0099 32.4774 62.0883 32.399L63.147 31.3795C63.5391 30.9874 63.5783 30.3209 63.1862 29.9288C63.0293 29.772 62.8333 29.6543 62.598 29.6151L61.1473 29.4191C61.0689 29.4191 60.9905 29.3407 60.9513 29.3015L60.3239 28.0076C60.0495 27.6547 59.6966 27.4194 59.3045 27.4194Z" fill="#FF9D28"/>
<path d="M82.7505 31.3795C83.1423 30.9874 83.182 30.3209 82.7895 29.9288C82.6329 29.772 82.3977 29.6543 82.2015 29.6151L80.7511 29.4191C80.6725 29.4191 80.5939 29.3407 80.5549 29.3015L79.9278 28.0076C79.653 27.6547 79.3001 27.4194 78.9083 27.4194C78.5158 27.4194 78.163 27.6547 77.9674 28.0076L77.3397 29.3015C77.3007 29.3799 77.2221 29.4191 77.1435 29.4191L75.6931 29.6151C75.1441 29.6936 74.7522 30.2033 74.8302 30.7914C74.8698 31.0267 74.9875 31.2227 75.1441 31.3795L76.2026 32.399C76.2812 32.4382 76.2812 32.5558 76.2812 32.6342L76.046 34.0458C76.007 34.3594 76.085 34.6731 76.2812 34.9084C76.4774 35.1436 76.7516 35.3004 77.0655 35.3004C77.2221 35.3004 77.4183 35.2613 77.5359 35.1828L78.8297 34.5163C78.8687 34.5163 78.9083 34.477 78.9473 34.477C78.9863 34.477 79.0259 34.477 79.0649 34.5163L80.3586 35.1828C80.5159 35.2613 80.6725 35.3004 80.8291 35.3004C81.1429 35.3004 81.4178 35.1436 81.6134 34.9084C81.8096 34.6731 81.8883 34.3594 81.8486 34.0458L81.6134 32.6342C81.6134 32.5558 81.6134 32.4774 81.692 32.399L82.7505 31.3795ZM81.3392 32.0853C81.1819 32.2421 81.104 32.4382 81.1429 32.6735L81.3782 34.0849C81.4568 34.4378 81.2216 34.7515 80.8687 34.8299C80.8291 34.8299 80.7901 34.8299 80.7511 34.8299C80.6335 34.8299 80.5549 34.7907 80.4373 34.7515L79.1435 34.0849C78.9473 33.9673 78.7121 33.9673 78.5555 34.0849L78.163 34.281V28.3213L78.2416 28.1644C78.4379 27.9684 78.6731 27.8115 78.9083 27.8115C79.1435 27.8115 79.3788 27.9684 79.4964 28.1644L80.1234 29.4583C80.202 29.6543 80.3983 29.772 80.5939 29.8112L82.0449 30.0072C82.3977 30.0464 82.6329 30.3993 82.5939 30.7522C82.5543 30.909 82.5153 31.0267 82.3977 31.1051L81.3392 32.0853Z" fill="#FF9D28"/>
</g>
</svg>
